<?xml version="1.0" encoding="UTF-8"?>
<svg width="501px" height="501px" viewBox="0 0 501 501" version="1.1" xmlns="http://www.w3.org/2000/svg" xmlns:xlink="http://www.w3.org/1999/xlink">
    <!-- Generator: Sketch 52.1 (67048) - http://www.bohemiancoding.com/sketch -->
    <title>logo</title>
    <desc>Created with Sketch.</desc>
    <g id="Page-1" stroke="none" stroke-width="1" fill="none" fill-rule="evenodd">
        <g id="logo">
            <polygon id="Path" fill="#FFFFFF" points="386.1 218.7 422.9 218.7 422.9 235.1 352.6 235.1 392.2 184.3 355 184.3 355 167.9 425.3 167.9"></polygon>
            <g id="Group">
                <path d="M250.7,500.3 C388.8,500.3 500.7,388.4 500.7,250.3 C500.7,112.2 388.8,0.3 250.7,0.3 C112.6,0.3 0.7,112.2 0.7,250.3 C0.7,388.4 112.6,500.3 250.7,500.3" id="Path" fill="#0000FF"></path>
                <path d="M104.8,236.4 C83,236.4 65.1,220.2 65.1,201.2 C65.1,181.9 82.9,166 104.8,166 C115.7,166 125.3,169.9 139.4,182.4 L126.4,194.1 C116.3,185.5 111,182.9 104.9,182.9 C94,182.9 84.7,191.2 84.7,201.1 C84.7,211 94,219.1 104.9,219.1 C111,219.1 116.3,216.5 126.4,207.4 L139.4,219.6 C125.3,232.5 115.7,236.4 104.8,236.4" id="Path" fill="#FFFFFF"></path>
            </g>
            <polygon id="Path" fill="#FFFFFF" points="386.1 218.7 422.9 218.7 422.9 235.1 352.6 235.1 392.2 184.3 355 184.3 355 167.9 425.3 167.9"></polygon>
            <g id="Group" transform="translate(157.000000, 72.000000)" fill="#FFFFFF">
                <path d="M0.2,242.1 C0.2,236.1 4.2,230.4 11.1,230.4 C18.8,230.4 23.1,236.9 24.1,241.3 C24.9,243.9 26.8,245.5 28.9,245.5 C41.7,245.5 54.7,222.3 64.8,180.6 C72.8,147.5 79.2,113.6 87.7,81 C93.8,58.3 102.6,36.7 114.3,21.1 C122.3,10.7 136.9,0.3 154.8,0.5 C175.3,0.5 183,10.9 183,18.5 C183,24.2 177.7,30.2 170.7,30.2 C164.6,30.2 160.6,24.2 159.5,17.2 C159.2,14.6 156,10.4 149.9,10.4 C119.6,10.4 113.2,51.1 106.2,80.3 C99.8,106.9 88.9,156.9 79.9,183.8 C65.8,225.2 48.5,256.5 20,256.5 C9.5,256.4 0.2,250.5 0.2,242.1" id="Path"></path>
                <path d="M58.1,347.1 C73.4,347.1 85.8,335 85.8,320 L30.5,320 C30.4,335 42.8,347.1 58.1,347.1" id="Path"></path>
            </g>
            <path d="M279.4,150 L270.7,150 L270.7,153.3 L279.4,153.3 L279.4,150 Z M239.6,149.2 L235,149.2 L235,154.1 L239.6,154.1 L239.6,149.2 Z" id="Shape" fill="#FFFFFF" fill-rule="nonzero"></path>
        </g>
    </g>
</svg>