<?xml version="1.0" encoding="utf-8"?>
<!-- Generator: Adobe Illustrator 16.0.0, SVG Export Plug-In . SVG Version: 6.00 Build 0)  -->
<!DOCTYPE svg PUBLIC "-//W3C//DTD SVG 1.1//EN" "http://www.w3.org/Graphics/SVG/1.1/DTD/svg11.dtd">
<svg version="1.1" id="Laag_1" xmlns="http://www.w3.org/2000/svg" xmlns:xlink="http://www.w3.org/1999/xlink" x="0px" y="0px"
	 width="479.988px" height="480px" viewBox="0 0 479.988 480" enable-background="new 0 0 479.988 480" xml:space="preserve">
<title>Westerik logo</title>
<path d="M479.988,240.006C479.988,107.507,372.533,0,239.981,0S0,107.468,0,240.006S107.455,480,239.955,480
	c132.5,0,240.008-107.441,240.008-239.994 M253.738,303.021c-3.027,7.262-9.859,22.745-21.147,21.524
	c-9.093-1.001-8.651-13.458,9.274-22.928c4.442-18.524,7.248-41.296,8.859-61.056c-17.732,21.761-46.921,45.947-66.068,61.859
	c-5.65,8.47-14.289,21.136-22.953,19.343c-6.651-1.402-7.054-6.495-5.196-10.288c3.611-7.639,17.329-11.482,20.55-17.914
	c6.055-11.689,27.591-86.422,23.564-109.416c-0.807-5.196-3.027-17.121-16.719-17.732c-41.088-1.818-57.014,61.457-35.074,62.873
	c11.094,0.624,16.523-11.691,18.94-21.954c2.026-8.677,9.274-12.912,8.054-1.624c-1.195,11.691-10.47,33.411-28.994,32.631
	c-12.094-0.598-18.329-11.275-18.745-22.356c-1.013-26.591,23.162-60.625,57.833-60.625c18.523,0,28.994,11.691,32.645,27.371
	c5.611,24.59-12.497,74.525-24.771,100.518c-0.222,0.61,0.39,0.61,0.791,0.208c18.187-15.913,49.572-46.765,56.793-56.793
	c1.209-12.068,0.61-37.463,2.43-47.154c3.027-15.926,13.471-23.759,24.344-22.083c9.275,1.416,13.328,11.068,12.912,18.914
	c-0.609,12.678-11.691,30.449-20.562,41.114c-1.391,31.812-7.639,58.625-11.691,71.121c-0.182,0.611-0.391,1.611-0.182,1.402
	c19.484-14.703,68.457-61.234,82.746-94.294c3.418-7.859,5.197-15.523,2.82-20.148c-3.809-7.054-4.809,2.819-9.666,3.625
	c-4.115,0.82-8.117-1.852-8.938-5.968c-0.219-1.099-0.191-2.233,0.078-3.32c1-4.625,5.195-9.093,12.08-9.093
	c5.834,0,11.887,4.819,13.521,11.691c8.041,35.658-48.359,96.308-97.489,130.564 M269.287,179.316
	c-0.401,9.093,0.793,19.758,0.599,25.422c4.001-5.456,10.457-18.758,11.873-25.201c1.014-4.637,0.817-14.51-4.599-14.107
	c-6.066,0.416-7.496,5.638-7.859,13.899"/>
</svg>
