<?xml version="1.0" encoding="utf-8"?>
<!-- Generator: Adobe Illustrator 16.0.0, SVG Export Plug-In . SVG Version: 6.00 Build 0)  -->
<!DOCTYPE svg PUBLIC "-//W3C//DTD SVG 1.1//EN" "http://www.w3.org/Graphics/SVG/1.1/DTD/svg11.dtd">
<svg version="1.1" id="Layer_1" xmlns="http://www.w3.org/2000/svg" xmlns:xlink="http://www.w3.org/1999/xlink" x="0px" y="0px"
	 width="373.458px" height="205px" viewBox="0 0 373.458 205" enable-background="new 0 0 373.458 205" xml:space="preserve">
<path d="M0.74,192.848l0.992-0.002C1.246,196.764,1,201,1,205H0C0,200,0.249,196.806,0.74,192.848z M2.969,180.63
	c0.987-3.888,2.231-7.75,3.698-11.479l0.93,0.366c-1.451,3.689-2.683,7.511-3.659,11.358L2.969,180.63z M11.777,158.23
	c1.92-3.513,4.085-6.942,6.434-10.195l0.811,0.586c-2.324,3.219-4.467,6.613-6.367,10.089L11.777,158.23z M25.86,138.722
	c2.729-2.93,5.672-5.719,8.745-8.29l0.643,0.767c-3.043,2.545-5.955,5.306-8.655,8.205L25.86,138.722z M44.312,123.292
	c3.37-2.169,6.908-4.145,10.517-5.873l0.432,0.902c-3.57,1.709-7.072,3.665-10.407,5.811L44.312,123.292z M66.005,112.908
	c3.8-1.262,7.72-2.296,11.652-3.073l0.193,0.981c-3.891,0.769-7.771,1.792-11.531,3.041L66.005,112.908z M89.603,108.242
	c2.279-0.16,4.6-0.242,6.897-0.242h5.458v1H96.5c-2.274,0-4.571,0.081-6.827,0.239L89.603,108.242z M113.958,108h12v1h-12V108z
	 M137.958,108h12v1h-12V108z M161.958,108h12v1h-12V108z M185.958,108h12v1h-12V108z M209.958,108h12v1h-12V108z M233.958,108h12v1
	h-12V108z M257.958,108h6.209c1.811,0,3.639-0.045,5.434-0.134l0.05,0.999c-1.812,0.089-3.656,0.135-5.483,0.135h-6.209V108z
	 M281.472,106.627c3.921-0.629,7.844-1.483,11.662-2.539l0.266,0.964c-3.852,1.065-7.812,1.927-11.77,2.562L281.472,106.627z
	 M304.446,100.272c3.682-1.473,7.322-3.17,10.822-5.044l0.472,0.882c-3.532,1.892-7.207,3.604-10.922,5.091L304.446,100.272z
	 M325.466,89.021c3.27-2.245,6.451-4.698,9.455-7.289l0.652,0.757c-3.031,2.615-6.241,5.09-9.541,7.356L325.466,89.021z
	 M343.519,73.452c2.703-2.905,5.272-5.991,7.638-9.171l0.803,0.597c-2.388,3.209-4.98,6.324-7.708,9.255L343.519,73.452z
	 M357.739,54.328c2.004-3.425,3.835-6.997,5.443-10.616l0.914,0.406c-1.623,3.652-3.473,7.257-5.494,10.715L357.739,54.328z
	 M367.419,32.553c1.198-3.776,2.197-7.666,2.971-11.559l0.98,0.194c-0.779,3.93-1.789,7.855-2.998,11.667L367.419,32.553z
	 M372.061,9.302C372.325,6.213,372.458,3,372.458,0h1c0,3-0.135,6.229-0.401,9.346L372.061,9.302z"/>
</svg>
