<?xml version="1.0" encoding="UTF-8"?>
<svg width="469px" height="104px" viewBox="0 0 469 104" version="1.1" xmlns="http://www.w3.org/2000/svg" xmlns:xlink="http://www.w3.org/1999/xlink">
    <!-- Generator: Sketch 49.3 (51167) - http://www.bohemiancoding.com/sketch -->
    <title>sensire</title>
    <desc>Created with Sketch.</desc>
    <defs></defs>
    <g id="Page-1" stroke="none" stroke-width="1" fill="none" fill-rule="evenodd">
        <g id="sensire" fill-rule="nonzero">
            <path d="M0.2,85.3 C0.2,83.3 0.2,81.3 0.2,79.3 C0.2,77.8 -0.5,75.9 2.1,75.5 C4.2,75.3 5.9,75.2 6.8,77.8 C8.7,83.5 12.1,88.1 16.6,91.9 C23.8,97.9 32,99 40.5,96.4 C51.7,93 54.4,79.8 45.8,71.7 C41.4,67.5 35.7,65.4 30.6,62.3 C27.6,60.5 24.6,58.7 21.8,56.7 C8,46.8 12.7,30.8 21.7,23.9 C34.3,14.2 48.7,13.6 63.6,16.5 C74,18.5 74,18.8 73.8,29.4 C73.8,31.1 73.8,32.7 73.7,34.4 C73.6,36.2 74.5,38.4 71.2,38.8 C68.3,39.1 67.6,37.9 67,35.4 C63,20.4 49.6,19.3 40.2,22.2 C35.5,23.6 32.1,26.8 31.1,31.8 C30,37.1 32.2,41.1 36.4,44.4 C41.3,48.2 47,50.5 52.5,53.4 C58.9,56.8 65,60.6 68.1,67.5 C72.7,77.9 68.5,90 57.3,96.5 C40.4,106.3 22.8,105.8 5.1,98.4 C1.9,97 0.6,94.8 0.9,91.4 C1.1,89.4 0.9,87.4 0.9,85.4 C0.5,85.3 0.4,85.3 0.2,85.3 Z" id="Shape" fill="#0D2C88"></path>
            <path d="M216.2,91.7 C219.6,91.1 222.2,89.6 224.8,88.1 C226.3,87.2 227.4,87.1 228.5,88.8 C229.6,90.4 228.7,91.1 227.5,92 C220.3,96.9 212.6,100.8 204,102.8 C196.8,104.4 193.4,100.8 195.3,93.6 C197.8,83.9 200.7,74.4 203.4,64.8 C203.8,63.5 204.4,62.3 204.5,61 C204.8,58.7 206.9,55.8 204.4,54 C202,52.3 199.8,54.8 197.7,56 C182.9,64.7 174.8,77.7 173.1,94.7 C172.7,98.5 171.3,100.1 167.4,100.5 C162.3,101 157.3,102.2 151.7,103.2 C155.7,88.6 159.4,74.7 163.2,60.8 C163.3,60.3 163.6,59.9 163.7,59.4 C164,57.8 165.2,55.8 163.9,54.7 C162.5,53.5 160.9,55.3 159.5,55.9 C157.8,56.6 156.3,57.7 154.8,58.6 C153.5,59.4 152.4,59.5 151.5,58 C150.8,56.8 150.8,55.8 152,55 C160,49.5 167.9,44 177.9,42.8 C182.8,42.2 185.2,44.7 184.5,49.6 C184,53.5 182.8,57.3 181.7,62.3 C187.9,57 193.5,52.5 199.7,48.9 C204.5,46.2 209.4,43.7 214.9,42.9 C223.3,41.7 227.5,46.1 225.5,54.3 C223.1,64.1 220.2,73.9 217.5,83.6 C216.8,86.2 215.5,88.6 216.2,91.7 Z" id="Shape" fill="#0D2C88"></path>
            <path d="M100.4,103.1 C84.9,103.2 77.1,94 79.8,78.6 C83.9,54.9 111.2,37.4 134,43.8 C138.1,44.9 141.3,47 142.5,51.3 C143.7,55.7 141.7,59.1 138.5,61.9 C129.9,69.5 119.1,72.5 108.6,76 C107.8,76.3 106.9,76.3 106.2,76.7 C103.9,77.9 99.8,76.8 99.5,80.5 C99.1,84.8 100.7,88.7 104.5,91.3 C108.3,93.8 112.4,93.5 116.5,92.5 C122,91.2 127.3,89.1 132,85.8 C133.5,84.7 134.8,84.3 136.2,86.1 C137.7,88 136.2,88.8 135.1,89.6 C124.8,97.4 113.7,103 100.4,103.1 Z M100.7,73.4 C108.4,70.4 115.7,68.3 121,62.4 C124.5,58.5 125,53.3 122.4,50.7 C119.8,48.1 115,48.3 111.1,51.6 C104.5,57.1 101.8,64.5 100.7,73.4 Z" id="Combined-Shape" fill="#0D2C88"></path>
            <path d="M425.4,103.1 C410.2,103.2 402.8,94.3 405,78.8 C408.4,55.6 436.5,37.4 459.2,43.9 C463.3,45.1 466.6,47.1 467.8,51.3 C469.1,55.9 466.9,59.4 463.5,62.3 C454.9,69.6 444.3,72.7 433.9,76.1 C433.1,76.4 432.2,76.4 431.5,76.8 C429.2,78 425.2,76.8 424.9,80.7 C424.6,84.8 425.9,88.6 429.5,91.2 C433.4,94.1 437.7,93.6 442,92.6 C447.4,91.3 452.5,89.4 457,86.1 C458.6,84.9 460.1,84.3 461.6,86.4 C463.3,88.8 460.9,89.3 459.8,90.1 C449.6,97.7 438.5,103 425.4,103.1 Z M425.7,73.2 C431.5,71.6 436.2,69.6 440.5,67 C444.1,64.9 447.4,62.2 448.7,58 C449.5,55.4 449.6,52.7 447.4,50.6 C445.2,48.5 442.7,48.5 440,49.5 C438.3,50.2 436.8,51 435.4,52.3 C429.5,57.8 427.1,64.8 425.7,73.2 Z" id="Combined-Shape" fill="#0D2C88"></path>
            <path d="M253.2,103.1 C249.1,103.5 244.4,102 239.9,99.7 C235.7,97.5 234.5,94.2 236.5,90.8 C239.1,86.3 244,84.9 247.8,87.6 C252,90.6 256.1,93.8 261.4,94.5 C262.7,94.7 264.1,94.8 265.3,94.6 C268.3,94.2 270.9,93 271.7,89.8 C272.5,86.7 270.4,84.8 268.2,83.2 C263.9,80.1 258.8,78.3 254.1,75.7 C243.8,70.1 242.6,60.7 251.1,52.5 C258.1,45.8 266.6,42.4 276.4,42.7 C279.3,42.8 282,43.3 284.7,44.3 C287.2,45.3 289.7,46.6 289.9,49.7 C290.2,52.8 288,54.5 285.7,55.9 C283.2,57.4 280.9,57.5 278.4,55.5 C274.8,52.7 271,50.4 266.1,50.7 C263.1,50.9 260.4,52 259.4,55 C258.2,58.3 260.9,60 263.1,61.3 C267.2,63.8 271.7,65.6 276,67.8 C288.8,74.4 289.9,84.4 278.9,93.7 C271.9,99.8 263.7,103 253.2,103.1 Z" id="Shape" fill="#0D2C88"></path>
            <path d="M350.5,102.6 C354.6,86.4 358.6,70.5 362.7,54.1 C358.3,54.8 355.6,56.9 352.8,58.5 C351.6,59.2 350.7,60 349.5,58.3 C348.3,56.6 348.8,55.6 350.3,54.6 C357,50 363.8,45.4 371.8,43.2 C378.6,41.4 381.8,44.5 380.3,51.3 C379.7,54 378.8,56.7 377.7,60.6 C382.2,55.7 385.8,51.6 389.7,47.8 C394.1,43.5 399.2,41.1 405.5,44 C410.1,46.1 411.1,49.6 408.2,53.6 C404.2,59.1 401.8,59.8 395.6,57.4 C391.3,55.7 387.9,57.2 384.8,60.2 C377.4,67.3 375.3,76.7 373,86.1 C371.9,90.6 372.7,96.5 369.6,99.2 C366.6,101.7 361.1,101.3 356.7,102 C354.7,102.4 352.8,103.3 350.5,102.6 Z" id="Shape" fill="#0D2C88"></path>
            <path d="M324.3,91.6 C327.8,91.4 330.5,89.4 333.4,88 C335.1,87.1 336.3,86.9 337.5,88.8 C338.9,91 336.8,91.4 335.8,92.1 C328.9,96.8 321.4,100.5 313.3,102.6 C305.2,104.7 301.6,101.2 303.8,93.1 C306.8,81.9 310.2,70.7 313.4,59.6 C313.9,57.9 314.8,56.2 313.8,54.3 C310.6,55 308,56.7 305.3,58.3 C304,59 302.8,60.2 301.5,58.2 C300.4,56.5 301.1,55.5 302.5,54.5 C309.4,49.9 316.4,45.3 324.6,43.3 C327.8,42.5 331.4,41.7 334.1,44.3 C336.9,47.1 335.6,50.6 334.6,53.7 C331.5,64.2 328.2,74.7 325,85.2 C324.4,87.3 323.3,89.3 324.3,91.6 Z" id="Shape" fill="#0D2C88"></path>
            <path d="M330,0.2 C339.1,0.5 347.6,1.6 354.4,7.9 C359.8,12.9 359.8,19.3 354.6,24.5 C352.9,26.2 350.6,27.3 351.4,30.5 C351.8,32.4 349.9,33.7 348.4,34.7 C343.5,38 333.2,37.9 328.5,34.2 C326.6,32.7 324.6,32 322.3,31.6 C316.3,30.3 310.4,28.4 306.1,23.6 C302,19 301.9,13.4 306.2,8.9 C312.8,1.9 321.4,0.6 330,0.2 Z M325.8,4.2 C320.7,4.4 316.3,5.2 312.2,7.1 C306,10.4 303.8,15.8 306.6,20.5 C309.5,25.4 322.2,30.3 325.9,28 C326.1,27.9 326.2,27.8 326.3,27.7 C329.6,23.3 334.4,22.6 339.3,22.9 C343,23.2 344.4,21 345,18.1 C345.8,14.6 344.5,11.7 341.6,9.4 C336.8,5.5 331.1,4.7 325.8,4.2 Z M338.8,28.5 C338,25.7 335.6,25.8 333.5,25.9 C331.7,26 329.5,26.4 329.8,28.9 C330.2,31.7 332.8,31.7 334.9,31.6 C336.7,31.5 338.5,30.8 338.8,28.5 Z" id="Combined-Shape" fill="#FB7C18"></path>
        </g>
    </g>
</svg>