<?xml version="1.0" encoding="UTF-8"?>
<svg viewBox="0 0 147 36" version="1.1" xmlns="http://www.w3.org/2000/svg" xmlns:xlink="http://www.w3.org/1999/xlink">
    <!-- Generator: Sketch 52.6 (67491) - http://www.bohemiancoding.com/sketch -->
    <title>Summer School logo</title>
    <desc>Created with Sketch.</desc>
    <g id="Summer-School-logo" stroke="none" stroke-width="1" fill="none" fill-rule="evenodd">
        <path d="M8.68,4.611 C8.1,4.426 7.493,4.347 6.912,4.347 C5.541,4.347 4.881,4.901 4.881,5.746 C4.881,7.355 8.284,8.12 8.284,11.022 C8.284,13.212 6.385,15.48 2.295,15.48 C1.425,15.48 0.66,15.401 0,15.296 L0.607,12.447 C1.214,12.658 1.953,12.816 2.612,12.816 C3.958,12.816 4.802,12.289 4.802,11.338 C4.802,9.571 1.425,9.175 1.425,6.088 C1.425,3.688 3.298,1.841 7.071,1.841 C7.915,1.841 8.627,1.894 9.287,2.025 L8.68,4.611" id="Fill-1" fill="#F3AF58"></path>
        <path d="M22.717,8.964 C22.374,10.758 21.847,13.634 21.583,15.217 L18.364,15.217 C18.496,14.425 18.813,13.212 19.525,11.154 L19.473,11.127 C18.285,13.476 16.465,15.507 13.958,15.507 C11.426,15.507 10.661,13.713 11.136,11.154 L12.877,2.105 L16.175,2.105 L14.592,10.336 C14.301,11.945 14.539,12.605 15.383,12.605 C17.151,12.605 19.525,8.489 20.105,5.429 L20.739,2.105 L24.037,2.105 L22.717,8.964" id="Fill-4" fill="#F3AF58"></path>
        <path d="M43.932,15.217 L40.634,15.217 L42.217,6.985 C42.534,5.376 42.244,4.69 41.478,4.69 C39.737,4.69 37.389,8.779 36.809,11.866 L36.176,15.217 L32.878,15.217 L34.461,6.985 C34.751,5.376 34.514,4.69 33.696,4.69 C31.955,4.69 29.633,8.779 29.026,11.893 L28.393,15.217 L25.095,15.217 L26.414,8.357 C26.731,6.801 27.285,3.74 27.549,2.105 L30.794,2.105 C30.635,2.922 30.292,4.189 29.606,6.168 L29.659,6.194 C30.847,3.846 32.614,1.814 35.094,1.814 C36.704,1.814 37.759,2.685 37.759,4.374 C37.759,4.901 37.627,5.402 37.363,6.273 L37.416,6.273 C38.629,3.846 40.423,1.814 42.903,1.814 C45.383,1.814 46.175,3.608 45.673,6.168 L43.932,15.217" id="Fill-5" fill="#F3AF58"></path>
        <path d="M66.361,15.217 L63.063,15.217 L64.646,6.985 C64.963,5.376 64.673,4.69 63.908,4.69 C62.166,4.69 59.818,8.779 59.238,11.866 L58.605,15.217 L55.307,15.217 L56.89,6.985 C57.18,5.376 56.943,4.69 56.125,4.69 C54.384,4.69 52.062,8.779 51.455,11.893 L50.822,15.217 L47.524,15.217 L48.843,8.357 C49.16,6.801 49.714,3.74 49.978,2.105 L53.223,2.105 C53.064,2.922 52.722,4.189 52.036,6.168 L52.088,6.194 C53.276,3.846 55.043,1.814 57.523,1.814 C59.133,1.814 60.188,2.685 60.188,4.374 C60.188,4.901 60.056,5.402 59.792,6.273 L59.845,6.273 C61.059,3.846 62.852,1.814 65.332,1.814 C67.812,1.814 68.604,3.608 68.103,6.168 L66.361,15.217" id="Fill-6" fill="#F3AF58"></path>
        <path d="M77.183,4.321 C75.468,4.321 74.386,5.904 73.911,7.619 C76.945,7.513 78.528,6.88 78.528,5.481 C78.528,4.743 78.027,4.321 77.183,4.321 Z M73.542,9.861 C73.516,10.151 73.463,10.6 73.463,10.89 C73.463,12.394 74.044,12.842 75.864,12.842 C77.13,12.842 78.476,12.552 79.689,12.051 L79.689,14.636 C78.238,15.191 76.523,15.48 74.782,15.48 C71.458,15.48 70.139,13.95 70.139,11.048 C70.139,5.561 73.463,1.841 77.553,1.841 C80.797,1.841 81.8,3.45 81.8,5.033 C81.8,8.173 78.687,9.703 73.542,9.861 Z" id="Fill-7" fill="#F3AF58"></path>
        <path d="M91.695,5.086 C89.77,4.479 87.475,7.935 86.604,12.368 L86.05,15.217 L82.752,15.217 L84.07,8.357 C84.44,6.511 84.941,3.793 85.205,2.105 L88.397,2.105 C88.213,3.107 87.896,4.268 87.264,6.062 L87.316,6.062 C88.714,3.292 90.139,1.472 92.408,1.841 L91.695,5.086" id="Fill-8" fill="#F3AF58"></path>
        <path d="M98.178,6.591 C97.692,6.429 97.166,6.348 96.659,6.348 C95.344,6.348 94.655,6.976 94.655,7.826 C94.655,9.426 97.713,9.851 97.713,12.119 C97.713,13.799 96.234,15.399 93.379,15.399 C92.711,15.399 92.164,15.358 91.658,15.257 L91.962,13.637 C92.468,13.779 93.056,13.901 93.643,13.901 C94.959,13.901 95.829,13.374 95.829,12.321 C95.829,10.722 92.812,10.458 92.812,8.029 C92.812,6.308 94.169,4.971 96.802,4.971 C97.49,4.971 97.996,5.032 98.502,5.113 L98.178,6.591" id="Fill-9" fill="#F3AF58"></path>
        <path d="M107.291,6.875 C106.744,6.631 106.157,6.49 105.448,6.49 C102.897,6.49 101.702,9.365 101.702,11.653 C101.702,12.706 102.047,13.779 103.809,13.779 C104.598,13.779 105.448,13.597 106.076,13.293 L105.955,14.893 C105.246,15.156 104.314,15.379 103.302,15.379 C100.69,15.379 99.799,13.961 99.799,12.058 C99.799,8.211 101.966,4.991 105.57,4.991 C106.4,4.991 107.068,5.113 107.696,5.295 L107.291,6.875" id="Fill-10" fill="#F3AF58"></path>
        <path d="M116.383,15.217 L114.581,15.217 L115.816,8.778 C116.12,7.198 115.836,6.51 114.945,6.51 C113.083,6.51 110.997,10.458 110.531,12.949 L110.106,15.217 L108.324,15.217 L110.855,1.914 L110.876,1.853 C110.43,1.772 109.741,1.691 109.175,1.65 L109.377,0.577 C110.39,0.456 111.787,0.375 112.921,0.436 L112.029,5.153 C111.868,5.943 111.625,6.915 110.896,9.122 L110.937,9.122 C111.888,6.996 113.468,4.951 115.573,4.951 C117.437,4.951 118.084,6.267 117.679,8.373 L116.383,15.217" id="Fill-12" fill="#F3AF58"></path>
        <path d="M125.253,6.51 C123.046,6.51 121.568,8.981 121.568,11.511 C121.568,13.01 122.176,13.84 123.694,13.84 C125.658,13.84 127.379,11.734 127.379,8.798 C127.379,7.32 126.711,6.51 125.253,6.51 Z M123.391,15.399 C120.859,15.399 119.705,14.124 119.705,11.815 C119.705,7.806 122.257,4.971 125.537,4.971 C128.189,4.971 129.283,6.47 129.283,8.596 C129.283,12.747 126.428,15.399 123.391,15.399 Z" id="Fill-14" fill="#F3AF58"></path>
        <path d="M136.168,6.51 C133.961,6.51 132.483,8.981 132.483,11.511 C132.483,13.01 133.091,13.84 134.609,13.84 C136.573,13.84 138.295,11.734 138.295,8.798 C138.295,7.32 137.626,6.51 136.168,6.51 Z M134.306,15.399 C131.774,15.399 130.62,14.124 130.62,11.815 C130.62,7.806 133.172,4.971 136.452,4.971 C139.104,4.971 140.198,6.47 140.198,8.596 C140.198,12.747 137.343,15.399 134.306,15.399 Z" id="Fill-15" fill="#F3AF58"></path>
        <path d="M143.48,15.217 L141.698,15.217 L144.229,1.914 L144.25,1.853 C143.804,1.772 143.115,1.691 142.549,1.65 L142.751,0.577 C143.764,0.456 145.161,0.375 146.295,0.436 L143.48,15.217" id="Fill-17" fill="#F3AF58"></path>
        <path d="M54.903,36 C50.474,36 49.403,33.611 49.403,30.83 L49.403,21.828 L52.616,21.828 L52.616,30.645 C52.616,32.271 53.131,33.302 55.109,33.302 C56.922,33.302 57.622,32.54 57.622,30.459 L57.622,21.828 L60.794,21.828 L60.794,30.274 C60.794,34.188 58.59,36 54.903,36" id="Fill-18" fill="#E41E2F"></path>
        <polyline id="Fill-20" fill="#E41E2F" points="70.678 24.567 70.678 35.733 67.485 35.733 67.485 24.567 64.148 24.567 64.148 21.828 74.015 21.828 74.015 24.567 70.678 24.567"></polyline>
        <path d="M81.488,24.361 C81.159,24.361 80.788,24.382 80.603,24.403 L80.603,27.966 C80.768,27.987 81.098,28.008 81.406,28.008 C82.766,28.008 83.631,27.287 83.631,26.112 C83.631,25.021 82.992,24.361 81.488,24.361 Z M84.022,35.733 L80.727,30.294 L80.603,30.294 L80.603,35.733 L77.389,35.733 L77.389,21.828 C78.563,21.746 80.067,21.725 81.736,21.725 C85.011,21.725 86.988,22.899 86.988,25.845 C86.988,27.719 85.773,29.244 83.92,29.697 C84.29,30.232 84.641,30.748 84.99,31.262 L87.936,35.733 L84.022,35.733 Z" id="Fill-21" fill="#E41E2F"></path>
        <polyline id="Fill-22" fill="#E41E2F" points="91.371 35.733 91.371 21.828 99.198 21.828 99.198 24.526 94.584 24.526 94.584 27.287 98.951 27.287 98.951 29.903 94.584 29.903 94.584 32.972 99.198 32.972 99.198 35.733 91.371 35.733"></polyline>
        <path d="M109.413,35.918 C104.283,35.918 102.903,32.437 102.903,29.285 C102.903,24.774 105.354,21.725 109.948,21.725 C110.917,21.725 111.926,21.849 112.791,22.075 L112.42,24.979 C111.638,24.753 110.752,24.609 109.887,24.609 C107.642,24.609 106.426,26.236 106.426,28.749 C106.426,31.489 107.538,32.993 110.052,32.993 C110.772,32.993 111.823,32.807 112.482,32.499 L112.853,35.362 C111.844,35.712 110.607,35.918 109.413,35.918" id="Fill-23" fill="#E41E2F"></path>
        <polyline id="Fill-24" fill="#E41E2F" points="125.33 35.733 125.33 29.944 120.242 29.944 120.242 35.733 117.029 35.733 117.029 21.828 120.242 21.828 120.242 27.163 125.33 27.163 125.33 21.828 128.544 21.828 128.544 35.733 125.33 35.733"></polyline>
        <polyline id="Fill-25" fill="#E41E2F" points="138.447 24.567 138.447 35.733 135.254 35.733 135.254 24.567 131.917 24.567 131.917 21.828 141.784 21.828 141.784 24.567 138.447 24.567"></polyline>
    </g>
</svg>