<?xml version="1.0" encoding="utf-8"?>
<!-- Generator: Adobe Illustrator 16.0.0, SVG Export Plug-In . SVG Version: 6.00 Build 0)  -->
<!DOCTYPE svg PUBLIC "-//W3C//DTD SVG 1.1//EN" "http://www.w3.org/Graphics/SVG/1.1/DTD/svg11.dtd">
<svg version="1.1" id="Layer_1" xmlns="http://www.w3.org/2000/svg" xmlns:xlink="http://www.w3.org/1999/xlink" x="0px" y="0px"
	 width="459px" height="520.2px" viewBox="76.5 59.4 459 520.2" enable-background="new 76.5 59.4 459 520.2" xml:space="preserve">
<path d="M107.1,457.157c0,0.012,0,0.03,0,0.043c0,39.106,29.492,71.451,67.406,75.961c11.86,27.834,39.314,46.438,70.294,46.438
	c25.037,0,47.234-12.142,61.2-30.796c13.966,18.648,36.163,30.796,61.2,30.796c30.979,0,58.434-18.604,70.294-46.438
	c37.914-4.51,67.406-36.854,67.406-75.961c0-0.013,0-0.031,0-0.043c19.082-14.346,30.6-36.978,30.6-61.157
	c0-13.434-3.599-26.671-10.288-38.25c6.689-11.579,10.288-24.816,10.288-38.25c0-25.123-11.989-47.956-31.983-62.173
	c0.918-4.731,1.384-9.523,1.384-14.327c0-24.18-11.519-46.812-30.601-61.157c0-0.012,0-0.03,0-0.043
	c0-24.933-12.271-48.25-32.454-62.497C434.195,84.669,403.339,59.4,367.2,59.4c-25.037,0-47.234,12.142-61.2,30.796
	C292.034,71.542,269.837,59.4,244.8,59.4c-36.132,0-66.996,25.27-74.646,59.903C149.964,133.55,137.7,156.867,137.7,181.8
	c0,0.013,0,0.031,0,0.043c-19.083,14.345-30.6,36.977-30.6,61.157c0,4.811,0.459,9.596,1.383,14.327
	C88.489,271.544,76.5,294.377,76.5,319.5c0,13.434,3.599,26.671,10.288,38.25C80.099,369.329,76.5,382.566,76.5,396
	C76.5,420.18,88.018,442.812,107.1,457.157z M321.3,481.955l12.448-6.224c4.229-2.111,8.96-3.231,13.69-3.231H367.2
	c8.451,0,15.3-6.849,15.3-15.3c0-8.452-6.849-15.3-15.3-15.3h-19.762c-9.003,0-17.993,2.087-26.139,5.93V344.445
	c14.419-6.31,30.166-9.646,45.9-9.646c8.451,0,15.3-6.848,15.3-15.3s-6.849-15.3-15.3-15.3c-15.563,0-31.12,2.613-45.9,7.54V201.874
	c10.049,6.836,21.892,10.526,34.309,10.526H382.5c8.452,0,15.3-6.848,15.3-15.3s-6.848-15.3-15.3-15.3h-26.892
	c-8.17,0-15.856-3.182-21.64-8.959L321.3,160.166V135.9c0-25.312,20.588-45.9,45.9-45.9c19.725,0,36.787,12.57,43.158,30.478
	l-27.748-0.189c-0.043,0-0.073,0-0.11,0c-8.402,0-15.239,6.781-15.3,15.196c-0.062,8.452,6.75,15.349,15.189,15.404l45.417,0.312
	c0.043,0,0.073,0,0.109,0c1.212,0,2.381-0.178,3.514-0.447c7.723,8.366,12.271,19.388,12.271,31.046c0,0.618-0.043,1.298-0.08,1.977
	l-17.332,21.922c-8.372,10.587-13.017,23.807-13.164,37.301H367.2c-8.452,0-15.3,6.848-15.3,15.3c0,8.452,6.848,15.3,15.3,15.3
	H413.1v15.3c0,8.452,6.849,15.3,15.301,15.3c8.451,0,15.3-6.849,15.3-15.3v-45.251c0-6.86,2.344-13.599,6.591-18.978l10.851-13.727
	c8.287,8.47,13.158,19.927,13.158,32.05c0,5.422-0.997,10.839-2.974,16.096c-2.772,7.393,0.538,15.692,7.644,19.137
	c15.991,7.772,25.931,23.581,25.931,41.273c0,5.3-0.894,10.447-2.62,15.3H443.7c-8.452,0-15.3,6.849-15.3,15.3s6.848,15.3,15.3,15.3
	h49.811c0.386,0.661,0.796,1.31,1.291,1.922c6.609,8.237,10.099,18.152,10.099,28.678c0,10.361-3.544,20.251-9.743,28.195
	C484.257,407.267,465.285,396,443.7,396H413.1c-8.439,0-15.3-6.867-15.3-15.3c0-8.452-6.848-15.3-15.3-15.3s-15.3,6.848-15.3,15.3
	c0,25.312,20.588,45.899,45.899,45.899H443.7c16.873,0,30.6,13.728,30.6,30.601c0,21.059-14.271,38.807-33.703,44.18l-4.847-24.229
	c-1.658-8.293-9.779-13.642-17.999-12.001c-8.286,1.658-13.659,9.718-12.001,18.005l6.12,30.594c-0.08,0.257-0.202,0.495-0.27,0.759
	C406.393,534.813,388.143,549,367.2,549c-2.797,0-5.526-0.294-8.188-0.771l19.009-19.009c5.979-5.973,5.979-15.661,0-21.634
	c-5.979-5.979-15.661-5.979-21.635,0l-24.633,24.633c-6.53-7.932-10.453-18.072-10.453-29.119V481.955z M153,334.8h-43.281
	c-1.726-4.853-2.619-10-2.619-15.3c0-17.693,9.939-33.501,25.93-41.267c7.105-3.446,10.417-11.745,7.644-19.137
	c-1.977-5.257-2.974-10.673-2.974-16.096c0-11.236,4.229-21.854,11.432-30.104l30.483,51.292c0.367,0.606,0.765,1.188,1.206,1.744
	c2.907,3.629,6.169,6.873,9.713,9.7l-17.754,17.754c-5.979,5.973-5.979,15.661,0,21.634c2.993,2.987,6.903,4.48,10.82,4.48
	c3.917,0,7.827-1.493,10.82-4.48l26.616-26.616c2.497,0.306,5.019,0.496,7.577,0.496H244.8c8.452,0,15.3-6.848,15.3-15.3
	s-6.848-15.3-15.3-15.3h-16.193c-9.027,0-17.46-3.904-23.287-10.747l-36.806-61.94c-0.123-1.383-0.214-2.668-0.214-3.813
	c0-15.196,7.675-29.327,20.16-37.84l26.548,13.274c2.197,1.102,4.529,1.622,6.83,1.622c5.612,0,11.016-3.097,13.696-8.458
	c3.776-7.559,0.71-16.75-6.842-20.526l-25.674-12.84C210.259,100.979,226.367,90,244.8,90c25.312,0,45.9,20.588,45.9,45.9v56.426
	c-10.049-6.836-21.892-10.526-34.309-10.526H244.8c-8.452,0-15.3,6.849-15.3,15.3s6.848,15.3,15.3,15.3h11.591
	c8.17,0,15.857,3.183,21.641,8.96l12.668,12.674v90.76c-12.852,3.843-26.916,2.821-39.058-3.25
	c-7.57-3.794-16.744-0.722-20.526,6.842c-3.776,7.558-0.71,16.75,6.842,20.526c11.726,5.863,24.584,8.794,37.442,8.794
	c5.128,0,10.245-0.6,15.3-1.53V411.3h-32.834c-11.665,0-22.148-6.48-27.369-16.916l-10.263-20.526
	c-3.782-7.564-12.968-10.618-20.526-6.848c-7.552,3.782-10.618,12.968-6.842,20.526l10.263,20.526
	c10.435,20.875,31.402,33.838,54.737,33.838H290.7V503.1c0,19.939-12.803,36.904-30.6,43.226v-24.21
	c0-16.347-6.365-31.714-17.926-43.275l-17.16-17.154c-5.979-5.973-15.673-5.973-21.634,0c-5.979,5.979-5.979,15.661,0,21.641
	l17.154,17.154c5.777,5.777,8.966,13.464,8.966,21.641v24.241c-14.082-4.994-25.221-16.714-29.101-31.849
	c-1.738-6.787-7.852-11.499-14.816-11.499c-0.184,0-0.374,0-0.557,0.006L183.6,503.1c-25.312,0-45.9-20.587-45.9-45.899
	c0-0.429,0.037-0.912,0.055-1.371l26.065-26.065c5.979-5.973,5.979-15.661,0-21.634c-5.979-5.979-15.661-5.979-21.634,0
	l-20.924,20.918c-8.905-8.556-14.162-20.44-14.162-33.048c0-10.526,3.488-20.441,10.098-28.678c0.489-0.612,0.905-1.261,1.291-1.922
	H153c8.452,0,15.3-6.848,15.3-15.3S161.452,334.8,153,334.8z"/>
</svg>
