<?xml version="1.0" encoding="utf-8"?>
<!-- Generator: Adobe Illustrator 16.0.0, SVG Export Plug-In . SVG Version: 6.00 Build 0)  -->
<!DOCTYPE svg PUBLIC "-//W3C//DTD SVG 1.1//EN" "http://www.w3.org/Graphics/SVG/1.1/DTD/svg11.dtd">
<svg version="1.1" id="Layer_1" xmlns="http://www.w3.org/2000/svg" xmlns:xlink="http://www.w3.org/1999/xlink" x="0px" y="0px"
	 width="568.48px" height="182.24px" viewBox="0 0 568.48 182.24" enable-background="new 0 0 568.48 182.24" xml:space="preserve">
<path d="M529.721,38.76V143.48h-104.72V38.76H529.721 M568.48,0H386.241v182.24h181.56V0H568.48z"/>
<path d="M91.12,86.36l28.56,55.76H63.24L91.12,86.36 M91.12,1.36L0,180.88h182.24L91.12,1.36L91.12,1.36z"/>
<path d="M272.682,38.759c28.56,0,51.68,23.121,51.68,51.681c0,28.559-23.12,51.68-51.68,51.68c-28.561,0-51.681-23.121-51.681-51.68
	C221.001,61.88,244.121,38.759,272.682,38.759 M272.682,0.68c-50.321,0-90.441,40.8-90.441,90.44
	c0,49.638,40.8,90.439,90.441,90.439c49.64,0,90.439-40.801,90.439-90.439C363.121,41.48,322.321,0.68,272.682,0.68L272.682,0.68z"
	/>
</svg>
