<?xml version="1.0" encoding="utf-8"?>
<!-- Generator: Adobe Illustrator 16.0.3, SVG Export Plug-In . SVG Version: 6.00 Build 0)  -->
<!DOCTYPE svg PUBLIC "-//W3C//DTD SVG 1.1//EN" "http://www.w3.org/Graphics/SVG/1.1/DTD/svg11.dtd">
<svg version="1.1" xmlns="http://www.w3.org/2000/svg" xmlns:xlink="http://www.w3.org/1999/xlink" x="0px" y="0px" width="24px"
	 height="24px" viewBox="0 0 24 24" enable-background="new 0 0 24 24" xml:space="preserve">
<g id="Outline_Icons_1_">
	<g id="Outline_Icons">
		<g>
			<path d="M23.5-0.018h-23c-0.276,0-0.5,0.224-0.5,0.5v8c0,0.276,0.224,0.5,0.5,0.5H5v3c0,0.191,0.109,0.365,0.28,0.449
				c0.07,0.034,0.145,0.051,0.22,0.051c0.109,0,0.217-0.036,0.307-0.105l4.364-3.395H23.5c0.276,0,0.5-0.224,0.5-0.5v-8
				C24,0.206,23.776-0.018,23.5-0.018z M23,7.982H10c-0.111,0-0.219,0.037-0.307,0.105L6,10.96V8.482c0-0.276-0.224-0.5-0.5-0.5H1
				v-7h22V7.982z"/>
			<path d="M23.5,10.982h-13c-0.276,0-0.5,0.224-0.5,0.5s0.224,0.5,0.5,0.5H23v6h-4.5c-0.276,0-0.5,0.224-0.5,0.5v2.887
				l-3.668-3.261c-0.091-0.081-0.209-0.126-0.332-0.126H1v-6h2c0.276,0,0.5-0.224,0.5-0.5s-0.224-0.5-0.5-0.5H0.5
				c-0.276,0-0.5,0.224-0.5,0.5v7c0,0.276,0.224,0.5,0.5,0.5h13.31l4.358,3.874c0.093,0.083,0.212,0.126,0.332,0.126
				c0.069,0,0.139-0.015,0.205-0.044C18.884,22.857,19,22.68,19,22.482v-3.5h4.5c0.276,0,0.5-0.224,0.5-0.5v-7
				C24,11.206,23.776,10.982,23.5,10.982z"/>
		</g>
	</g>
	<g id="New_icons_1_">
	</g>
</g>
<g id="Invisible_Shape">
	<rect fill="none" width="24" height="24"/>
</g>
</svg>
