<?xml version="1.0" encoding="utf-8"?>
<!-- Generator: Adobe Illustrator 16.0.3, SVG Export Plug-In . SVG Version: 6.00 Build 0)  -->
<!DOCTYPE svg PUBLIC "-//W3C//DTD SVG 1.1//EN" "http://www.w3.org/Graphics/SVG/1.1/DTD/svg11.dtd">
<svg version="1.1" xmlns="http://www.w3.org/2000/svg" xmlns:xlink="http://www.w3.org/1999/xlink" x="0px" y="0px" width="24px"
	 height="24px" viewBox="0 0 24 24" enable-background="new 0 0 24 24" xml:space="preserve">
<g id="Outline_Icons">
	<g>
		<path d="M19,3.5C19,1.57,17.43,0,15.5,0h-12C1.57,0,0,1.57,0,3.5v13C0,16.776,0.224,17,0.5,17H3v6.5C3,23.776,3.224,24,3.5,24h12
			c0.276,0,0.5-0.224,0.5-0.5V6.949C17.691,6.704,19,5.258,19,3.5z M1,16V3.5C1,2.122,2.122,1,3.5,1S6,2.122,6,3.5
			C6,3.671,5.983,3.838,5.95,4H3.5C3.224,4,3,4.224,3,4.5v2V16H1z M4,5.95V5h1.499C5.138,5.479,4.609,5.826,4,5.95z M15,23H4V7h11
			V23z M15.5,6H5.941C6.593,5.365,7,4.479,7,3.5S6.593,1.636,5.941,1H15.5C16.878,1,18,2.122,18,3.5S16.878,6,15.5,6z"/>
		<path d="M9.5,11h4c0.276,0,0.5-0.224,0.5-0.5S13.776,10,13.5,10h-4C9.224,10,9,10.224,9,10.5S9.224,11,9.5,11z"/>
		<path d="M9.5,15h4c0.276,0,0.5-0.224,0.5-0.5S13.776,14,13.5,14h-4C9.224,14,9,14.224,9,14.5S9.224,15,9.5,15z"/>
		<path d="M9.5,19h4c0.276,0,0.5-0.224,0.5-0.5S13.776,18,13.5,18h-4C9.224,18,9,18.224,9,18.5S9.224,19,9.5,19z"/>
		<path d="M5.646,10.854C5.744,10.951,5.872,11,6,11s0.256-0.049,0.354-0.146l2-2c0.195-0.195,0.195-0.512,0-0.707
			s-0.512-0.195-0.707,0L6,9.793L5.854,9.646c-0.195-0.195-0.512-0.195-0.707,0s-0.195,0.512,0,0.707L5.646,10.854z"/>
		<path d="M5.646,14.854C5.744,14.951,5.872,15,6,15s0.256-0.049,0.354-0.146l2-2c0.195-0.195,0.195-0.512,0-0.707
			s-0.512-0.195-0.707,0L6,13.793l-0.146-0.146c-0.195-0.195-0.512-0.195-0.707,0s-0.195,0.512,0,0.707L5.646,14.854z"/>
		<path d="M22,5.5c-0.737,0-1.375,0.405-1.722,1H20c-1.103,0-2,0.897-2,2V16c0,0.276,0.224,0.5,0.5,0.5S19,16.276,19,16V8.5
			c0-0.551,0.449-1,1-1V22c0,1.103,0.897,2,2,2s2-0.897,2-2V7.5C24,6.397,23.103,5.5,22,5.5z M21,15h2v6h-2V15z M22,6.5
			c0.551,0,1,0.449,1,1V14h-2V7.5C21,6.949,21.449,6.5,22,6.5z M22,23c-0.551,0-1-0.449-1-1h2C23,22.551,22.551,23,22,23z"/>
	</g>
</g>
<g id="Invisible_Shape">
	<rect fill="none" width="24" height="24"/>
</g>
</svg>
