<?xml version="1.0" encoding="utf-8"?>
<!-- Generator: Adobe Illustrator 16.0.3, SVG Export Plug-In . SVG Version: 6.00 Build 0)  -->
<!DOCTYPE svg PUBLIC "-//W3C//DTD SVG 1.1//EN" "http://www.w3.org/Graphics/SVG/1.1/DTD/svg11.dtd">
<svg version="1.1" xmlns="http://www.w3.org/2000/svg" xmlns:xlink="http://www.w3.org/1999/xlink" x="0px" y="0px" width="24px"
	 height="24px" viewBox="0 0 24 24" enable-background="new 0 0 24 24" xml:space="preserve">
<g id="Outline_Icons_1_">
	<g id="Outline_Icons">
	</g>
	<g id="New_icons_1_">
		<g>
			<path d="M23.855,14.644l-2.5-2.5c-0.188-0.187-0.52-0.187-0.707,0l-7.502,7.503c-0.058,0.057-0.093,0.126-0.116,0.198
				c-0.002,0.007-0.009,0.011-0.011,0.018l-1,3.5c-0.05,0.174-0.002,0.362,0.127,0.491C12.241,23.949,12.369,24,12.5,24
				c0.046,0,0.092-0.006,0.138-0.019l3.5-1c0.008-0.002,0.013-0.009,0.02-0.012c0.071-0.023,0.14-0.059,0.196-0.116l7.502-7.502
				C24.051,15.156,24.051,14.839,23.855,14.644z M16,21.793L14.207,20l4.795-4.795l1.793,1.792L16,21.793z M13.747,20.954
				l1.299,1.298l-1.818,0.52L13.747,20.954z M21.502,16.291l-1.793-1.793l1.293-1.292l1.793,1.792L21.502,16.291z"/>
			<path d="M10,23H1V3h1.5C2.776,3,3,2.776,3,2.5S2.776,2,2.5,2h-2C0.224,2,0,2.224,0,2.5v21C0,23.776,0.224,24,0.5,24H10
				c0.276,0,0.5-0.224,0.5-0.5S10.276,23,10,23z"/>
			<path d="M16.5,3H18v8.5c0,0.276,0.224,0.5,0.5,0.5s0.5-0.224,0.5-0.5v-9C19,2.224,18.776,2,18.5,2h-2C16.224,2,16,2.224,16,2.5
				S16.224,3,16.5,3z"/>
			<path d="M10.5,21H3V5h1v0.5C4,5.776,4.224,6,4.5,6h10C14.776,6,15,5.776,15,5.5V5h1v7.5c0,0.276,0.224,0.5,0.5,0.5
				s0.5-0.224,0.5-0.5v-8C17,4.224,16.776,4,16.5,4H15V2.5C15,2.224,14.776,2,14.5,2h-2.55c-0.232-1.14-1.243-2-2.45-2
				S7.282,0.86,7.05,2H4.5C4.224,2,4,2.224,4,2.5V4H2.5C2.224,4,2,4.224,2,4.5v17C2,21.776,2.224,22,2.5,22h8
				c0.276,0,0.5-0.224,0.5-0.5S10.776,21,10.5,21z M5,3h2.5C7.776,3,8,2.776,8,2.5C8,1.673,8.673,1,9.5,1S11,1.673,11,2.5
				C11,2.776,11.224,3,11.5,3H14v2H5V3z"/>
			<path d="M13.5,9h-8C5.224,9,5,9.224,5,9.5S5.224,10,5.5,10h8c0.276,0,0.5-0.224,0.5-0.5S13.776,9,13.5,9z"/>
			<path d="M13.5,11h-8C5.224,11,5,11.224,5,11.5S5.224,12,5.5,12h8c0.276,0,0.5-0.224,0.5-0.5S13.776,11,13.5,11z"/>
			<path d="M14,13.5c0-0.276-0.224-0.5-0.5-0.5h-8C5.224,13,5,13.224,5,13.5S5.224,14,5.5,14h8C13.776,14,14,13.776,14,13.5z"/>
			<path d="M5.5,15C5.224,15,5,15.224,5,15.5S5.224,16,5.5,16H10c0.276,0,0.5-0.224,0.5-0.5S10.276,15,10,15H5.5z"/>
		</g>
	</g>
</g>
<g id="Invisible_Shape">
	<rect fill="none" width="24" height="24"/>
</g>
</svg>
