<?xml version="1.0" encoding="utf-8"?>
<!-- Generator: Adobe Illustrator 16.0.0, SVG Export Plug-In . SVG Version: 6.00 Build 0)  -->
<!DOCTYPE svg PUBLIC "-//W3C//DTD SVG 1.1//EN" "http://www.w3.org/Graphics/SVG/1.1/DTD/svg11.dtd">
<svg version="1.1" id="Layer_1" xmlns="http://www.w3.org/2000/svg" xmlns:xlink="http://www.w3.org/1999/xlink" x="0px" y="0px"
	 width="24px" height="24px" viewBox="0 0 24 24" enable-background="new 0 0 24 24" xml:space="preserve">
<g>
	<g>
		<path d="M13.5,24h-3c-0.276,0-0.5-0.224-0.5-0.5v-2.854c-0.792-0.201-1.67-0.456-2.332-0.78l-2.032,2.034
			c-0.188,0.188-0.52,0.188-0.707,0L2.1,19.071c-0.094-0.094-0.146-0.221-0.146-0.354s0.053-0.26,0.146-0.354l2.033-2.033
			C3.811,15.669,3.555,14.791,3.354,14H0.5C0.224,14,0,13.776,0,13.5v-3C0,10.224,0.224,10,0.5,10h2.854
			c0.201-0.791,0.456-1.668,0.778-2.331L2.1,5.636C2.006,5.542,1.953,5.416,1.953,5.283S2.006,5.023,2.1,4.929l2.829-2.828
			c0.195-0.195,0.512-0.195,0.707,0l2.033,2.032C8.334,3.809,9.211,3.554,10,3.355V0.5C10,0.224,10.224,0,10.5,0h3
			C13.776,0,14,0.224,14,0.5v2.855c0.937,0.236,1.996,0.55,2.681,0.968c0.235,0.144,0.31,0.452,0.166,0.687
			c-0.144,0.237-0.45,0.31-0.688,0.167c-0.668-0.408-1.904-0.733-2.776-0.943C13.158,4.18,13,3.979,13,3.748V1h-2v2.748
			c0,0.231-0.158,0.432-0.383,0.486C9.744,4.443,8.507,4.77,7.839,5.177c-0.197,0.12-0.451,0.091-0.614-0.073L5.282,3.162
			L3.16,5.283l1.943,1.943C5.267,7.389,5.297,7.643,5.177,7.84c-0.451,0.738-0.81,2.22-0.945,2.778C4.178,10.842,3.977,11,3.746,11
			H1v2h2.746c0.231,0,0.432,0.158,0.486,0.383c0.135,0.558,0.495,2.041,0.945,2.777c0.12,0.197,0.09,0.451-0.073,0.614L3.16,18.718
			l2.122,2.121l1.942-1.944c0.163-0.165,0.418-0.193,0.615-0.072c0.735,0.451,2.219,0.811,2.778,0.945
			C10.842,19.822,11,20.023,11,20.254V23h2v-2.746c0-0.23,0.158-0.432,0.383-0.486c0.559-0.135,2.042-0.494,2.775-0.944
			c0.196-0.12,0.451-0.091,0.615,0.073l1.944,1.942l2.121-2.121l-1.942-1.943c-0.163-0.163-0.193-0.417-0.073-0.614
			c0.45-0.736,0.81-2.22,0.944-2.777C19.822,13.158,20.023,13,20.254,13H23v-2h-2.747c-0.23,0-0.432-0.158-0.486-0.383
			c-0.117-0.486-0.277-1.121-0.479-1.711c-0.089-0.261,0.052-0.545,0.312-0.634c0.261-0.088,0.545,0.05,0.635,0.313
			c0.163,0.48,0.3,0.98,0.409,1.416H23.5c0.276,0,0.5,0.224,0.5,0.5v3c0,0.276-0.224,0.5-0.5,0.5h-2.854
			c-0.2,0.791-0.456,1.669-0.778,2.331l2.032,2.033c0.195,0.195,0.195,0.512,0,0.707l-2.828,2.828c-0.195,0.195-0.512,0.195-0.707,0
			l-2.034-2.032c-0.661,0.322-1.539,0.577-2.33,0.778V23.5C14,23.776,13.776,24,13.5,24z"/>
	</g>
	<path d="M12.31,14.876c-0.132,0-0.259-0.053-0.354-0.146l-4.477-4.476c-0.195-0.195-0.195-0.512,0-0.707s0.512-0.195,0.707,0
		l4.083,4.082L23.11,0.186c0.175-0.215,0.491-0.249,0.703-0.075c0.216,0.173,0.249,0.488,0.076,0.703L12.699,14.689
		c-0.089,0.11-0.221,0.179-0.362,0.186C12.327,14.876,12.318,14.876,12.31,14.876z"/>
</g>
</svg>
