<?xml version="1.0" encoding="utf-8"?>
<!-- Generator: Adobe Illustrator 16.0.0, SVG Export Plug-In . SVG Version: 6.00 Build 0)  -->
<!DOCTYPE svg PUBLIC "-//W3C//DTD SVG 1.1//EN" "http://www.w3.org/Graphics/SVG/1.1/DTD/svg11.dtd">
<svg version="1.1" id="Layer_1" xmlns="http://www.w3.org/2000/svg" xmlns:xlink="http://www.w3.org/1999/xlink" x="0px" y="0px"
	 width="19px" height="24px" viewBox="0 0 19 24" enable-background="new 0 0 19 24" xml:space="preserve">
<g id="Outline_Icons">
	<path d="M15.5,12H15v-1.5c0-0.276-0.225-0.5-0.5-0.5h-0.275l1.278-3.387c0.991-0.158,1.733-1.051,1.888-2.333
		c0.195-1.64-0.625-3.654-2.892-4.202c-0.2-0.051-0.408,0.03-0.526,0.198c-0.117,0.168-0.121,0.39-0.009,0.562
		c0.528,0.805,0.209,1.283-0.354,1.993c-0.215,0.272-0.418,0.529-0.541,0.82c-0.234,0.556-0.248,1.14-0.035,1.646
		c0.099,0.237,0.25,0.451,0.436,0.637L11.206,10H11V0.5C11,0.224,10.776,0,10.5,0h-4C6.224,0,6,0.224,6,0.5V10H5.794L3.437,5.757
		c-0.004-0.009-0.014-0.012-0.02-0.02C3.41,5.726,3.408,5.711,3.4,5.7C3.363,5.65,3.316,5.613,3.267,5.582
		c-0.004-0.003-0.005-0.008-0.01-0.01L3.253,5.568c-0.001,0-0.001,0-0.002-0.001L0.757,4.071c-0.169-0.1-0.378-0.095-0.538,0.016
		C0.058,4.197-0.025,4.39,0.007,4.582l0.5,3C0.508,7.59,0.512,7.596,0.514,7.603c0.004,0.018,0.011,0.033,0.016,0.05
		c0.008,0.024,0.012,0.049,0.023,0.071L1.691,10H1.5C1.224,10,1,10.224,1,10.5v11C1,22.878,2.122,24,3.5,24h9
		c1.378,0,2.5-1.122,2.5-2.5V19h0.5c1.93,0,3.5-1.57,3.5-3.5S17.43,12,15.5,12z M13.988,4.04c0.07-0.167,0.232-0.37,0.404-0.587
		c0.379-0.48,0.896-1.132,0.84-1.982c0.938,0.639,1.276,1.748,1.164,2.69c-0.082,0.685-0.446,1.484-1.207,1.484
		c-0.18,0-0.375-0.044-0.582-0.132C14.29,5.38,14.064,5.172,13.955,4.91C13.846,4.652,13.857,4.351,13.988,4.04z M14.316,6.467
		c0.052,0.02,0.103,0.033,0.154,0.049L13.154,10H12.35L14.316,6.467z M7,1h3v1H8.5C8.224,2,8,2.224,8,2.5S8.224,3,8.5,3H10v1H9.5
		C9.224,4,9,4.224,9,4.5S9.224,5,9.5,5H10v1H8.5C8.224,6,8,6.224,8,6.5S8.224,7,8.5,7H10v1H9.5C9.224,8,9,8.224,9,8.5S9.224,9,9.5,9
		H10v1H7V1z M2.105,6.046l-0.747,0.56l-0.187-1.12L2.105,6.046z M1.634,7.65l1.208-0.906L4.65,10H2.809L1.634,7.65z M14,21.5
		c0,0.827-0.673,1.5-1.5,1.5h-9C2.673,23,2,22.327,2,21.5V11h12V21.5z M15.5,18H15v-5h0.5c1.378,0,2.5,1.122,2.5,2.5
		S16.878,18,15.5,18z"/>
</g>
<g id="Invisible_Shape">
	<rect fill="none" width="24" height="24"/>
</g>
</svg>
