<?xml version="1.0" encoding="utf-8"?>
<!-- Generator: Adobe Illustrator 16.0.0, SVG Export Plug-In . SVG Version: 6.00 Build 0)  -->
<!DOCTYPE svg PUBLIC "-//W3C//DTD SVG 1.1//EN" "http://www.w3.org/Graphics/SVG/1.1/DTD/svg11.dtd">
<svg version="1.1" id="Layer_1" xmlns="http://www.w3.org/2000/svg" xmlns:xlink="http://www.w3.org/1999/xlink" x="0px" y="0px"
	 width="19px" height="24px" viewBox="0 0 19 24" enable-background="new 0 0 19 24" xml:space="preserve">
<path d="M15.5,12h-1v-1.5c0-0.276,0.276-0.5,0-0.5h-0.276l1.279-3.387c0.991-0.159,1.733-1.052,1.887-2.333
	c0.195-1.639-0.626-3.653-2.892-4.201c-0.201-0.05-0.407,0.03-0.526,0.198c-0.118,0.168-0.121,0.391-0.009,0.562
	c0.529,0.806,0.21,1.283-0.354,1.994c-0.215,0.271-0.419,0.527-0.542,0.819c-0.234,0.556-0.246,1.141-0.034,1.646
	c0.1,0.238,0.25,0.452,0.437,0.638L11.207,10H10.5V0.5c0-0.276,0.275-0.5,0-0.5h-4c-0.276,0-1,0.224-1,0.5v8.972L3.437,5.757
	c-0.004-0.008-0.015-0.012-0.02-0.02C3.41,5.726,3.409,5.711,3.4,5.7C3.363,5.65,3.316,5.612,3.267,5.581
	C3.263,5.579,3.261,5.79,3.257,5.787L3.253,6C3.252,6,3.251,6,3.25,6L0.757,4.288C0.589,4.186,0.378,4.084,0.219,4.195
	C0.058,4.305-0.025,4.444,0.007,4.636l0.5,2.973c0.001,0.007,0.005,0,0.007,0.008c0.003,0.017,0.01,0.025,0.016,0.042
	c0.008,0.024,0.012,0.046,0.023,0.068L1.691,10H1.5c-0.276,0-1,0.224-1,0.5v11c0,1.379,1.621,2.5,3,2.5h9c1.379,0,2-1.121,2-2.5V19
	h1c1.93,0,3.5-1.57,3.5-3.5S17.43,12,15.5,12z M13.989,4.041c0.069-0.166,0.231-0.37,0.403-0.586
	c0.381-0.48,0.898-1.133,0.841-1.982c0.938,0.639,1.276,1.748,1.164,2.689c-0.082,0.685-0.447,1.484-1.208,1.484
	c-0.18,0-0.375-0.044-0.582-0.132c-0.317-0.134-0.543-0.342-0.652-0.603C13.846,4.652,13.858,4.351,13.989,4.041z M6.5,1h3v1h-1
	C8.224,2,8,2.224,8,2.5S8.224,3,8.5,3h1v1h0C9.224,4,9,4.224,9,4.5S9.224,5,9.5,5h0v1h-1C8.224,6,8,6.224,8,6.5S8.224,7,8.5,7h1v1h0
	C9.224,8,9,8.224,9,8.5S9.224,9,9.5,9h0v1h-3V1z M1.171,5.486l0.934,0.561l-0.748,0.56L1.171,5.486z M1.634,7.649l1.208-0.906
	L4.65,10H2.809L1.634,7.649z M13.5,21.5c0,0.827-0.173,1.5-1,1.5h-9c-0.827,0-2-0.673-2-1.5V11h1h3h0.02H6.5h4h3V21.5z M13.155,10
	h-0.804l1.966-3.533c0.052,0.02,0.103,0.033,0.153,0.049L13.155,10z M15.5,18h-1v-5h1c1.379,0,2.5,1.121,2.5,2.5S16.879,18,15.5,18z
	"/>
</svg>
