<?xml version="1.0" encoding="utf-8"?>
<!-- Generator: Adobe Illustrator 16.0.0, SVG Export Plug-In . SVG Version: 6.00 Build 0)  -->
<!DOCTYPE svg PUBLIC "-//W3C//DTD SVG 1.1//EN" "http://www.w3.org/Graphics/SVG/1.1/DTD/svg11.dtd">
<svg version="1.1"
	 id="Layer_1" xmlns:svg="http://www.w3.org/2000/svg" xmlns:sodipodi="http://sodipodi.sourceforge.net/DTD/sodipodi-0.dtd" xmlns:inkscape="http://www.inkscape.org/namespaces/inkscape" xmlns:rdf="http://www.w3.org/1999/02/22-rdf-syntax-ns#" xmlns:dc="http://purl.org/dc/elements/1.1/" xmlns:cc="http://creativecommons.org/ns#"
	 xmlns="http://www.w3.org/2000/svg" xmlns:xlink="http://www.w3.org/1999/xlink" x="0px" y="0px" width="308.038px"
	 height="192.847px" viewBox="166.362 95.041 308.038 192.847" enable-background="new 166.362 95.041 308.038 192.847"
	 xml:space="preserve">
<g transform="translate(0,-952.36218)">
	<path d="M176.48,1048.291c-6.315,0.775-10.807,6.524-10.031,12.839c0.278,2.264,1.221,4.394,2.711,6.121l142.08,168.96
		c4.133,4.838,11.404,5.409,16.243,1.276c0.458-0.392,0.886-0.818,1.276-1.276l142.08-168.96c4.6-4.397,4.763-11.69,0.366-16.29
		c-4.397-4.599-11.69-4.763-16.29-0.366c-0.599,0.572-1.134,1.208-1.596,1.895L320,1211.012l-133.32-158.521
		C184.215,1049.449,180.373,1047.867,176.48,1048.291z"/>
</g>
</svg>
