<?xml version="1.0" encoding="utf-8"?>
<!-- Generator: Adobe Illustrator 16.0.0, SVG Export Plug-In . SVG Version: 6.00 Build 0)  -->
<!DOCTYPE svg PUBLIC "-//W3C//DTD SVG 1.1//EN" "http://www.w3.org/Graphics/SVG/1.1/DTD/svg11.dtd">
<svg version="1.1"
	 id="Layer_1" xmlns:rdf="http://www.w3.org/1999/02/22-rdf-syntax-ns#" xmlns:cc="http://creativecommons.org/ns#" xmlns:svg="http://www.w3.org/2000/svg" xmlns:sodipodi="http://sodipodi.sourceforge.net/DTD/sodipodi-0.dtd" xmlns:inkscape="http://www.inkscape.org/namespaces/inkscape" xmlns:dc="http://purl.org/dc/elements/1.1/"
	 xmlns="http://www.w3.org/2000/svg" xmlns:xlink="http://www.w3.org/1999/xlink" x="0px" y="0px" width="550.8px"
	 height="550.801px" viewBox="30.6 44.1 550.8 550.801" enable-background="new 30.6 44.1 550.8 550.801" xml:space="preserve">
<g transform="translate(0,-952.36218)">
	<path d="M190.103,996.463c3.297-0.061,5.024,2.71,5.929,4.398l8.606,29.644c6.479,2.029,12.656,4.735,18.551,7.841l27.157-15.108
		c2.324-1.234,5.437-0.742,7.268,1.147l26.583,26.393c1.916,1.902,2.33,5.135,0.957,7.458l-15.109,27.158
		c3.118,5.908,5.806,12.055,7.841,18.551l29.835,8.415c2.534,0.743,4.422,3.287,4.398,5.929v37.676
		c0.024,2.642-1.864,5.186-4.398,5.929l-30.027,8.606c-2.024,6.409-4.571,12.524-7.65,18.36l15.109,27.349
		c1.282,2.285,0.873,5.392-0.957,7.268l-26.583,26.584c-1.875,1.829-4.983,2.238-7.268,0.956l-27.157-15.108
		c-5.873,3.095-12.098,5.624-18.551,7.65l-8.606,29.835c-0.673,2.604-3.239,4.591-5.929,4.59h-37.485
		c-2.69,0.001-5.256-1.985-5.929-4.59l-8.606-29.835c-6.454-2.026-12.678-4.555-18.551-7.65l-27.158,15.108
		c-2.285,1.282-5.392,0.873-7.267-0.956l-26.584-26.584c-1.829-1.875-2.238-4.982-0.956-7.268l15.108-27.349
		c-3.079-5.835-5.625-11.951-7.65-18.36l-30.026-8.606c-2.535-0.743-4.422-3.287-4.398-5.929v-37.676
		c-0.024-2.642,1.864-5.186,4.398-5.929l29.835-8.415c2.035-6.497,4.724-12.643,7.841-18.551l-15.108-27.158
		c-1.374-2.323-0.959-5.557,0.956-7.458l26.584-26.393c1.83-1.89,4.943-2.382,7.267-1.147l27.158,15.108
		c5.895-3.106,12.072-5.812,18.551-7.841l8.606-29.644c0.743-2.535,3.287-4.422,5.929-4.398H190.103z M185.704,1008.703h-28.688
		l-7.841,28.113c-0.602,2.037-2.337,3.697-4.398,4.208c-7.99,2.201-15.484,5.532-22.567,9.562c-1.805,1-4.124,1-5.929,0
		l-25.818-14.343l-20.082,20.081l14.344,25.627c1.068,1.85,1.068,4.27,0,6.12c-4.03,7.082-7.17,14.579-9.371,22.567
		c-0.568,1.992-2.216,3.64-4.208,4.208l-28.305,8.033v28.497l28.305,8.032c1.992,0.569,3.64,2.216,4.208,4.208
		c2.201,7.99,5.34,15.675,9.371,22.759c0.999,1.805,0.999,4.124,0,5.929l-14.152,25.818l19.89,19.89l25.818-14.343
		c1.837-0.942,4.156-0.867,5.929,0.19c7.084,4.031,14.579,7.17,22.567,9.371c2.061,0.508,3.797,2.171,4.398,4.208l8.033,28.305
		h28.305l8.032-28.305c0.602-2.036,2.337-3.697,4.399-4.208c7.989-2.2,15.483-5.34,22.567-9.371c1.772-1.059,4.092-1.133,5.929-0.19
		l25.819,14.343l19.89-19.89l-14.153-25.818c-0.999-1.805-0.999-4.124,0-5.929c4.031-7.084,7.17-14.769,9.372-22.759
		c0.568-1.992,2.215-3.64,4.208-4.208l28.305-8.032v-28.497l-28.305-8.033c-1.992-0.569-3.64-2.215-4.208-4.208
		c-2.201-7.989-5.341-15.485-9.372-22.567c-1.068-1.85-1.068-4.27,0-6.12l14.344-25.627l-20.081-20.081l-25.819,14.343
		c-1.805,1-4.124,1-5.929,0c-7.084-4.031-14.578-7.361-22.567-9.562c-2.062-0.508-3.797-2.171-4.399-4.208L185.704,1008.703z
		 M171.36,1082.143c30.348,0,55.08,24.733,55.08,55.08s-24.732,55.08-55.08,55.08c-30.347,0-55.08-24.732-55.08-55.08
		S141.013,1082.143,171.36,1082.143z M171.36,1094.383c-23.732,0-42.84,19.108-42.84,42.84c0,23.732,19.108,42.84,42.84,42.84
		c23.732,0,42.84-19.108,42.84-42.84C214.2,1113.491,195.092,1094.383,171.36,1094.383z M438.345,1216.783
		c3.369-0.061,5.192,2.543,5.929,4.398l10.328,35.955c7.949,2.464,15.555,5.528,22.759,9.372l32.703-18.169
		c2.324-1.234,5.438-0.742,7.268,1.147l31.365,31.365c1.829,1.875,2.237,4.983,0.956,7.267l-17.978,32.513
		c3.871,7.262,7.095,14.93,9.562,22.95l35.764,10.136c2.535,0.742,4.423,3.287,4.399,5.929v44.561
		c0.024,2.642-1.864,5.187-4.399,5.929l-35.764,10.137c-2.475,8.043-5.867,15.669-9.754,22.949l18.169,32.514
		c1.374,2.323,0.959,5.557-0.956,7.458l-31.365,31.365c-1.875,1.829-4.982,2.238-7.268,0.956l-32.703-18.168
		c-7.209,3.847-14.804,7.098-22.759,9.562l-10.328,35.764c-0.673,2.605-3.238,4.592-5.929,4.59h-44.37
		c-2.689,0.002-5.256-1.984-5.929-4.59l-10.327-35.764c-7.955-2.465-15.551-5.716-22.759-9.562l-32.704,18.169
		c-2.284,1.282-5.392,0.872-7.268-0.956l-31.365-31.365c-1.916-1.901-2.33-5.136-0.956-7.459l18.169-32.512
		c-3.886-7.281-7.279-14.906-9.754-22.951l-35.764-10.136c-2.535-0.743-4.423-3.288-4.399-5.93v-44.561
		c-0.024-2.642,1.864-5.187,4.399-5.929l35.764-10.136c2.467-8.02,5.692-15.688,9.562-22.95l-17.978-32.513
		c-1.282-2.284-0.873-5.392,0.956-7.267l31.365-31.365c1.831-1.89,4.944-2.381,7.268-1.147l32.704,18.169
		c7.203-3.844,14.81-6.908,22.759-9.372l10.327-35.955c0.743-2.534,3.288-4.422,5.929-4.398H438.345z M433.946,1229.023h-35.572
		l-9.562,34.042c-0.568,1.991-2.216,3.64-4.208,4.208c-9.535,2.626-18.71,6.478-27.157,11.283c-1.805,1-4.124,1-5.929,0
		l-31.174-17.212l-24.862,24.863l17.403,31.173c0.999,1.805,0.999,4.124,0,5.929c-4.807,8.448-8.657,17.431-11.284,26.966
		c-0.568,1.992-2.215,3.641-4.208,4.208l-34.233,9.754v35.381l34.233,9.754c1.992,0.569,3.64,2.216,4.208,4.208
		c2.627,9.534,6.477,18.518,11.284,26.966c1.068,1.851,1.068,4.271,0,6.12l-17.212,31.174l24.671,24.671l31.174-17.212
		c1.805-1,4.124-1,5.929,0c8.448,4.807,17.622,8.656,27.157,11.283c1.992,0.569,3.64,2.216,4.208,4.207l9.754,34.234h35.189
		l9.754-34.234c0.567-1.991,2.216-3.639,4.207-4.207c9.535-2.627,18.71-6.477,27.158-11.283c1.805-1,4.124-1,5.929,0l31.174,17.212
		l24.671-24.671l-17.213-31.174c-1.067-1.85-1.067-4.27,0-6.12c4.807-8.447,8.657-17.431,11.284-26.966
		c0.568-1.992,2.216-3.641,4.207-4.208l34.234-9.754v-35.381l-34.234-9.754c-1.991-0.569-3.639-2.216-4.207-4.208
		c-2.627-9.535-6.478-18.518-11.284-26.966c-0.999-1.805-0.999-4.124,0-5.929l17.404-31.173l-24.862-24.863l-31.174,17.212
		c-1.805,1-4.124,1-5.929,0c-8.448-4.806-17.623-8.657-27.158-11.283c-1.991-0.569-3.639-2.216-4.207-4.208L433.946,1229.023z
		 M416.16,1314.702c37.107,0,67.32,30.213,67.32,67.32c0,37.107-30.213,67.32-67.32,67.32s-67.32-30.213-67.32-67.32
		C348.84,1344.915,379.053,1314.702,416.16,1314.702z M416.16,1326.942c-30.492,0-55.08,24.588-55.08,55.08
		s24.588,55.08,55.08,55.08s55.08-24.588,55.08-55.08S446.652,1326.942,416.16,1326.942z"/>
</g>
</svg>
