<?xml version="1.0" encoding="utf-8"?>
<!-- Generator: Adobe Illustrator 16.0.0, SVG Export Plug-In . SVG Version: 6.00 Build 0)  -->
<!DOCTYPE svg PUBLIC "-//W3C//DTD SVG 1.1//EN" "http://www.w3.org/Graphics/SVG/1.1/DTD/svg11.dtd">
<svg version="1.1" id="Layer_1" xmlns="http://www.w3.org/2000/svg" xmlns:xlink="http://www.w3.org/1999/xlink" x="0px" y="0px"
	 width="353.28px" height="189.527px" viewBox="143.36 97.236 353.28 189.527"
	 enable-background="new 143.36 97.236 353.28 189.527" xml:space="preserve">
<g display="none">
	<polygon display="inline" points="438.464,95.382 494.24,141.385 494.24,226.491 269.973,277.094 148.64,253.521 148.64,153.462 
		214.196,103.434 	"/>
	<polyline display="inline" fill="none" points="494.24,141.385 269.4,162.663 214.196,103.434 	"/>
	<polyline display="inline" fill="none" points="263.072,159.214 213.621,106.311 153.816,151.738 263.072,159.214 263.072,159.214 
		263.072,159.214 	"/>
	<line display="inline" fill="none" x1="214.769" y1="107.458" x2="214.769" y2="155.762"/>
	<line display="inline" fill="none" x1="216.493" y1="109.187" x2="216.493" y2="155.19"/>
	<line display="inline" fill="none" x1="236.046" y1="130.46" x2="236.046" y2="157.49"/>
	<line display="inline" fill="none" x1="181.418" y1="131.036" x2="181.418" y2="153.462"/>
	<line display="inline" fill="none" x1="238.346" y1="132.76" x2="238.346" y2="157.49"/>
	<line display="inline" fill="none" x1="184.294" y1="128.736" x2="184.294" y2="154.038"/>
	<line display="inline" fill="none" x1="240.646" y1="135.061" x2="240.646" y2="156.338"/>
	<line display="inline" fill="none" x1="212.468" y1="109.759" x2="186.591" y2="129.312"/>
	<polyline display="inline" fill="none" points="181.418,133.336 157.841,151.162 153.816,151.738 	"/>
	<line display="inline" fill="none" x1="157.841" y1="151.162" x2="181.418" y2="152.313"/>
	<polyline display="inline" fill="none" points="184.867,153.462 186.591,152.886 212.468,154.614 	"/>
	<polyline display="inline" fill="none" points="214.196,155.762 216.493,154.614 236.046,155.762 	"/>
	<polyline display="inline" fill="none" points="238.346,157.49 241.222,156.338 261.924,157.49 	"/>
	<line display="inline" fill="none" x1="184.294" y1="128.736" x2="187.167" y2="128.736"/>
	<polyline display="inline" fill="none" points="487.919,139.661 270.548,159.214 218.797,105.734 436.736,97.682 487.919,139.661 
		487.919,139.661 487.919,139.661 	"/>
	<polygon display="inline" points="301.599,156.338 248.699,104.583 246.971,104.583 246.971,105.158 297.002,156.914 	"/>
	<polygon display="inline" points="330.349,153.462 277.449,103.434 275.725,103.434 275.725,104.583 325.752,154.038 	"/>
	<polygon display="inline" points="359.679,151.162 305.627,102.282 303.903,102.282 303.903,103.434 354.498,151.738 	"/>
	<polygon display="inline" points="389.009,148.861 334.377,101.134 332.652,101.134 332.652,102.282 384.4,148.861 	"/>
	<polygon display="inline" points="416.606,145.989 363.123,100.558 361.402,100.558 361.402,101.134 412.01,146.562 	"/>
	<polygon display="inline" points="445.36,143.685 391.301,99.41 389.581,99.41 389.581,99.986 441.912,143.685 	"/>
	<polygon display="inline" points="473.538,140.813 420.066,98.258 418.911,98.258 418.911,98.834 470.09,141.385 	"/>
	<line display="inline" fill="none" x1="219.369" y1="106.311" x2="246.971" y2="105.158"/>
	<line display="inline" fill="none" x1="419.482" y1="99.41" x2="392.457" y2="99.986"/>
	<line display="inline" fill="none" x1="389.581" y1="99.986" x2="363.707" y2="101.134"/>
	<line display="inline" fill="none" x1="361.402" y1="101.134" x2="335.529" y2="102.282"/>
	<line display="inline" fill="none" x1="332.652" y1="102.282" x2="306.775" y2="103.434"/>
	<line display="inline" fill="none" x1="303.903" y1="103.434" x2="278.601" y2="104.006"/>
	<line display="inline" fill="none" x1="275.725" y1="104.583" x2="249.275" y2="105.158"/>
	<line display="inline" fill="none" x1="275.725" y1="103.434" x2="327.477" y2="154.038"/>
	<line display="inline" fill="none" x1="246.971" y1="104.583" x2="298.15" y2="156.914"/>
	<line display="inline" fill="none" x1="304.479" y1="102.282" x2="356.234" y2="151.738"/>
	<line display="inline" fill="none" x1="385.557" y1="148.861" x2="332.652" y2="101.134"/>
	<line display="inline" fill="none" x1="413.158" y1="146.562" x2="361.402" y2="100.558"/>
	<line display="inline" fill="none" x1="389.581" y1="99.41" x2="443.061" y2="143.685"/>
	<line display="inline" fill="none" x1="471.814" y1="141.385" x2="418.911" y2="98.258"/>
	<line display="inline" fill="none" x1="212.468" y1="106.883" x2="212.468" y2="155.762"/>
	<line display="inline" fill="none" x1="186.591" y1="129.312" x2="186.591" y2="152.886"/>
	<polygon display="inline" points="269.973,162.663 273.425,162.086 273.425,273.066 269.4,274.223 266.524,273.066 
		266.524,162.086 	"/>
	<polyline display="inline" fill="none" points="269.973,277.094 269.973,162.663 148.64,153.462 	"/>
	<polyline display="inline" fill="none" points="266.524,273.066 150.94,251.221 150.94,156.338 266.524,165.539 	"/>
	<line display="inline" fill="none" x1="269.973" y1="274.223" x2="491.936" y2="224.767"/>
	<line display="inline" fill="none" x1="152.665" y1="250.068" x2="152.665" y2="156.914"/>
	<polyline display="inline" fill="none" points="273.425,165.539 491.936,144.261 491.936,224.767 	"/>
	<polygon display="inline" points="300.451,210.966 298.15,210.39 273.425,213.842 273.425,214.986 	"/>
	<line display="inline" fill="none" x1="490.792" y1="223.042" x2="273.425" y2="271.918"/>
	<line display="inline" fill="none" x1="490.792" y1="223.042" x2="490.792" y2="144.837"/>
	<line display="inline" fill="none" x1="297.002" y1="156.914" x2="301.026" y2="156.338"/>
	<polygon display="inline" points="304.479,162.663 304.479,266.166 300.451,267.322 298.15,266.746 298.15,163.238 	"/>
	<polygon display="inline" points="333.809,159.786 333.809,259.846 329.777,260.414 327.477,259.846 327.477,160.362 	"/>
	<polygon display="inline" points="361.986,156.914 361.986,253.521 357.955,254.669 355.654,254.097 355.654,157.49 	"/>
	<polygon display="inline" points="392.457,154.038 392.457,246.624 387.856,247.769 386.137,247.196 386.137,154.614 	"/>
	<polygon display="inline" points="478.139,145.413 478.139,227.643 474.114,228.791 472.395,228.219 472.395,146.562 	"/>
	<line display="inline" fill="none" x1="300.451" y1="163.238" x2="300.451" y2="267.322"/>
	<line display="inline" fill="none" x1="329.777" y1="160.362" x2="329.777" y2="260.414"/>
	<line display="inline" fill="none" x1="357.955" y1="254.669" x2="357.955" y2="157.49"/>
	<line display="inline" fill="none" x1="387.856" y1="154.614" x2="387.856" y2="247.769"/>
	<line display="inline" fill="none" x1="474.114" y1="145.989" x2="474.114" y2="228.791"/>
	<polygon display="inline" points="491.936,181.063 491.364,180.488 478.139,182.216 478.139,182.792 	"/>
	<polygon display="inline" points="474.114,183.94 472.395,183.364 449.381,186.816 449.381,187.388 	"/>
	<polygon display="inline" points="387.856,197.168 386.137,196.589 361.986,200.617 361.986,201.197 	"/>
	<polygon display="inline" points="357.955,201.765 355.654,201.197 333.809,204.641 333.809,205.213 	"/>
	<polygon display="inline" points="329.777,206.365 327.477,205.213 304.479,209.242 304.479,210.39 	"/>
	<polygon display="inline" points="181.418,205.213 181.418,208.666 150.94,204.641 150.94,201.197 	"/>
	<line display="inline" fill="none" x1="152.665" y1="250.068" x2="266.524" y2="271.346"/>
	<polygon display="inline" points="186.019,159.214 186.019,256.396 184.294,257.541 181.418,256.969 181.418,158.638 	"/>
	<polygon display="inline" points="198.091,159.786 198.091,258.693 196.367,259.846 192.919,259.277 192.919,159.786 	"/>
	<polygon display="inline" points="240.646,163.238 240.646,266.166 238.346,267.901 236.046,267.322 236.046,163.238 	"/>
	<polygon display="inline" points="228.57,162.663 228.57,263.873 226.27,265.598 223.969,265.598 223.969,162.086 	"/>
	<line display="inline" fill="none" x1="238.346" y1="163.238" x2="238.346" y2="267.901"/>
	<line display="inline" fill="none" x1="226.27" y1="162.086" x2="226.27" y2="265.598"/>
	<line display="inline" fill="none" x1="184.294" y1="158.638" x2="184.294" y2="257.541"/>
	<line display="inline" fill="none" x1="196.367" y1="159.786" x2="196.367" y2="259.846"/>
	<polygon display="inline" points="266.524,215.574 266.524,214.418 241.222,211.542 238.346,211.542 	"/>
	<polygon display="inline" points="181.418,205.213 150.94,201.197 152.665,201.197 181.418,204.069 	"/>
	<polygon display="inline" points="223.969,264.445 223.969,162.086 196.943,159.786 196.943,258.693 	"/>
	<polygon display="inline" points="219.945,215.574 219.945,251.789 203.268,248.92 203.268,212.694 	"/>
	<polygon display="inline" points="219.945,170.139 219.945,205.793 203.268,203.489 203.268,168.415 	"/>
	<polygon display="inline" points="201.543,207.518 200.968,207.518 200.396,208.086 199.819,208.666 199.819,208.666 
		199.819,209.242 199.819,209.821 199.819,210.39 199.819,210.966 199.819,210.966 199.819,211.542 199.819,212.114 
		200.396,212.114 200.968,212.694 201.543,212.694 201.543,212.694 202.12,212.114 202.696,211.542 202.696,210.966 
		202.696,210.966 202.696,210.39 202.696,209.821 202.696,209.821 202.696,209.242 202.696,208.666 202.696,208.086 202.12,208.086 
			"/>
	<polygon display="inline" points="200.396,206.941 200.396,206.941 199.819,206.941 199.244,207.518 199.244,207.518 
		199.244,208.086 199.244,208.666 198.667,209.242 199.244,209.821 199.244,210.39 199.244,210.39 199.244,210.966 199.819,211.542 
		200.396,211.542 200.396,211.542 200.968,211.542 201.543,210.966 201.543,210.39 202.12,210.39 202.12,209.821 202.12,209.242 
		202.12,209.242 202.12,208.666 202.12,208.086 202.12,207.518 201.543,207.518 201.543,206.941 200.968,206.941 	"/>
	<polyline display="inline" fill="none" points="204.42,213.266 204.42,247.769 219.945,250.641 	"/>
	<polyline display="inline" fill="none" points="219.945,204.641 204.996,202.917 204.996,168.987 	"/>
	<polygon display="inline" points="420.066,151.162 420.066,240.292 415.459,241.443 414.314,240.871 414.314,151.738 	"/>
	<line display="inline" fill="none" x1="415.459" y1="151.738" x2="415.459" y2="241.443"/>
	<polygon display="inline" points="416.034,192.564 414.314,191.992 392.457,195.44 392.457,196.589 	"/>
	<polygon display="inline" points="449.381,148.289 449.381,233.971 445.937,234.543 444.217,234.543 444.217,148.861 	"/>
	<line display="inline" fill="none" x1="445.937" y1="148.861" x2="445.937" y2="234.543"/>
	<polygon display="inline" points="445.937,187.964 444.217,187.388 420.066,191.417 420.635,191.992 	"/>
	<polygon display="inline" points="273.425,214.986 491.936,181.063 491.936,183.94 273.425,219.018 	"/>
	<polygon display="inline" points="266.524,214.986 266.524,219.018 238.346,215.574 238.346,212.114 	"/>
</g>
<path d="M438.341,97.236l-225.723,8.106l-1.221,0.046L143.36,157.31v106.307l125.25,23.147l228.03-51.452v-89.991L438.341,97.236z
	 M151.04,163.35l27.398,2.078v43.96l-27.398-3.779V163.35z M443.824,147.921l-48.514-41.449l17.333-0.622l46.637,40.608
	L443.824,147.921z M223.29,168.83v46.744l-27.971-3.859V166.71L223.29,168.83z M258.948,163.833l-18.202-1.378v-17.948
	L258.948,163.833z M233.066,161.868l-17.046-1.291v-42.328l17.046,18.102V161.868z M230.97,169.413l2.097,0.157v47.351l-2.097-0.288
	V169.413z M240.746,170.154l23.946,1.816v48.476l-23.946-2.838V170.154z M272.373,171.905l25.386-2.412v46.741l-25.386,4.036
	V171.905z M305.438,168.764l21.07-2v44.897l-21.07,3.349V168.764z M334.189,166.038l20.209-1.92v43.108l-20.209,3.214V166.038z
	 M362.078,163.392l22.223-2.108v41.192l-22.223,3.533V163.392z M391.98,160.558l20.782-1.974v39.364l-20.782,3.302V160.558z
	 M420.443,157.854l20.785-1.974v37.536l-20.785,3.302V157.854z M433.188,148.931l-15.563,1.479l-49.459-42.966l15.802-0.564
	L433.188,148.931z M407.064,151.411l-18.547,1.759l-48.131-44.729l16.965-0.61l-0.195,0.227L407.064,151.411z M378.279,154.142
	l-19.046,1.809l-47.155-46.487l17.449-0.626L378.279,154.142z M349.249,156.895l-18.09,1.713l-47.942-48.115l18.305-0.657
	L349.249,156.895z M321.256,159.552l-18.213,1.728l-49.317-49.724l19.02-0.687L321.256,159.552z M293.158,162.217l-23.117,2.193
	l-48.684-51.694l21.923-0.783L293.158,162.217z M208.34,159.994l-22.222-1.682v-23.969l22.222-16.958V159.994z M178.438,157.728
	l-20.89-1.586l20.89-15.94V157.728z M186.118,166.011l1.521,0.111v44.533l-1.521-0.211V166.011z M187.639,218.408v45.581
	l-1.521-0.28v-45.512L187.639,218.408z M195.319,219.464l27.971,3.859v47.255l-27.971-5.173V219.464z M230.97,224.383l2.097,0.292
	v47.712l-2.097-0.392V224.383z M240.746,225.343l23.946,2.838v50.05l-23.946-4.427V225.343z M272.373,228.046l25.386-4.036v48.303
	l-25.386,5.726V228.046z M305.438,222.793l21.07-3.353v46.388l-21.07,4.754V222.793z M334.189,218.22l20.209-3.214v44.529
	l-20.209,4.562V218.22z M362.078,213.784l22.223-3.533v42.532l-22.223,5.02V213.784z M391.98,209.03l20.782-3.302v40.639
	l-20.782,4.688V209.03z M420.443,204.507l20.785-3.306v38.742l-20.785,4.692V204.507z M448.909,199.979l15.812-2.515l0.012,37.175
	l-15.824,3.571V199.979z M448.909,192.2v-37.044l15.801-1.498l0.012,36.031L448.909,192.2z M472.395,152.924l16.565-1.571v34.479
	l-16.558,2.634L472.395,152.924z M483.192,144.188l-13.359,1.268l-45.957-40.009l11.827-0.426L483.192,144.188z M151.04,213.358
	l27.398,3.775v45.15l-27.398-5.061V213.358z M472.413,232.904l-0.011-36.661l16.558-2.63v35.559L472.413,232.904z"/>
</svg>
