<?xml version="1.0" encoding="utf-8"?>
<!-- Generator: Adobe Illustrator 16.0.3, SVG Export Plug-In . SVG Version: 6.00 Build 0)  -->
<!DOCTYPE svg PUBLIC "-//W3C//DTD SVG 1.1//EN" "http://www.w3.org/Graphics/SVG/1.1/DTD/svg11.dtd">
<svg version="1.1" xmlns="http://www.w3.org/2000/svg" xmlns:xlink="http://www.w3.org/1999/xlink" x="0px" y="0px" width="24px"
	 height="24px" viewBox="0 0 24 24" enable-background="new 0 0 24 24" xml:space="preserve">
<g id="Outline_Icons_1_">
	<g id="Outline_Icons">
		<path d="M23.854,7.646l-7-7c-0.195-0.195-0.512-0.195-0.707,0c-1.135,1.135-3.162,1.135-4.292,0C11.76,0.553,11.633,0.5,11.5,0.5
			s-0.26,0.053-0.354,0.146l-1,1c-0.195,0.195-0.195,0.512,0,0.707l3.896,3.896L0.146,20.146c-0.195,0.195-0.195,0.512,0,0.707
			l2.5,2.5c0.195,0.195,0.512,0.195,0.707,0L17.25,9.457l2.396,2.397c0.195,0.195,0.512,0.195,0.707,0l3.5-3.5
			C24.049,8.159,24.049,7.842,23.854,7.646z M3,22.293L1.207,20.5L14.75,6.957l1.793,1.793L3,22.293z M20,10.793L11.207,2
			l0.315-0.314c1.4,1.089,3.552,1.089,4.956,0L22.793,8L20,10.793z"/>
	</g>
	<g id="New_icons_1_">
	</g>
</g>
<g id="Invisible_Shape">
	<rect fill="none" width="24" height="24"/>
</g>
</svg>
