<?xml version="1.0" encoding="utf-8"?>
<!-- Generator: Adobe Illustrator 16.0.3, SVG Export Plug-In . SVG Version: 6.00 Build 0)  -->
<!DOCTYPE svg PUBLIC "-//W3C//DTD SVG 1.1//EN" "http://www.w3.org/Graphics/SVG/1.1/DTD/svg11.dtd">
<svg version="1.1" xmlns="http://www.w3.org/2000/svg" xmlns:xlink="http://www.w3.org/1999/xlink" x="0px" y="0px" width="24px"
	 height="24px" viewBox="0 0 24 24" enable-background="new 0 0 24 24" xml:space="preserve">
<g id="Outline_Icons_1_">
	<g id="Outline_Icons">
		<path d="M17.812,0.016C15.668-0.147,13.145,1.063,12,4.019c-1.126-2.905-3.584-4.094-5.672-3.939C3.676,0.282,1,2.552,1,7.166
			c0,8.455,10.286,15.354,10.725,15.645c0.083,0.056,0.18,0.083,0.275,0.083c0.108,0,0.216-0.035,0.306-0.104
			C12.743,22.451,23,14.421,23,6.574C23,2.341,20.311,0.207,17.812,0.016z M11.978,21.77C10.288,20.569,2,14.317,2,7.166
			c0-3.974,2.212-5.922,4.404-6.09C6.51,1.068,6.615,1.064,6.722,1.064c2.048,0,4.248,1.507,4.784,4.994
			C11.543,6.303,11.753,6.482,12,6.482s0.457-0.18,0.494-0.424c0.573-3.719,3.062-5.211,5.241-5.046C19.858,1.175,22,2.958,22,6.574
			C22,13.233,13.639,20.41,11.978,21.77z"/>
	</g>
	<g id="New_icons_1_">
	</g>
</g>
<g id="Invisible_Shape">
	<rect fill="none" width="24" height="24"/>
</g>
</svg>
