<?xml version="1.0" encoding="utf-8"?>
<!-- Generator: Adobe Illustrator 16.0.3, SVG Export Plug-In . SVG Version: 6.00 Build 0)  -->
<!DOCTYPE svg PUBLIC "-//W3C//DTD SVG 1.1//EN" "http://www.w3.org/Graphics/SVG/1.1/DTD/svg11.dtd">
<svg version="1.1" xmlns="http://www.w3.org/2000/svg" xmlns:xlink="http://www.w3.org/1999/xlink" x="0px" y="0px" width="24px"
	 height="24px" viewBox="0 0 24 24" enable-background="new 0 0 24 24" xml:space="preserve">
<g id="Outline_Icons_1_">
	<g id="Outline_Icons">
		<g>
			<path d="M23.5,5H15V3.5c0-1.654-1.346-3-3-3s-3,1.346-3,3V5H0.5C0.224,5,0,5.224,0,5.5v17C0,22.776,0.224,23,0.5,23h23
				c0.276,0,0.5-0.224,0.5-0.5v-17C24,5.224,23.776,5,23.5,5z M10,3.5c0-1.104,0.897-2,2-2s2,0.896,2,2V7h-4V3.5z M9,6v1.5
				C9,7.776,9.224,8,9.5,8h5C14.776,8,15,7.776,15,7.5V6h8v3H1V6H9z M1,22V10h22v12H1z"/>
			<path d="M8.745,16.285C9.209,15.831,9.5,15.2,9.5,14.5C9.5,13.122,8.378,12,7,12s-2.5,1.122-2.5,2.5
				c0,0.7,0.291,1.331,0.755,1.785C3.629,16.867,3,18.259,3,19.5C3,19.776,3.224,20,3.5,20h7c0.276,0,0.5-0.224,0.5-0.5
				C11,18.259,10.371,16.867,8.745,16.285z M5.5,14.5C5.5,13.673,6.173,13,7,13s1.5,0.673,1.5,1.5S7.827,16,7,16
				S5.5,15.327,5.5,14.5z M4.047,19c0.149-0.79,0.74-2,2.953-2s2.803,1.21,2.953,2H4.047z"/>
			<rect x="13" y="18" width="8" height="1"/>
			<rect x="13" y="16" width="8" height="1"/>
			<rect x="13" y="14" width="8" height="1"/>
			<rect x="13" y="12" width="4" height="1"/>
			<path d="M12,2.495c-0.551,0-1,0.449-1,1c0,0.551,0.449,1,1,1s1-0.449,1-1C13,2.944,12.551,2.495,12,2.495z"/>
		</g>
	</g>
	<g id="New_icons_1_">
	</g>
</g>
<g id="Invisible_Shape">
	<rect fill="none" width="24" height="24"/>
</g>
</svg>
