<?xml version="1.0" encoding="utf-8"?>
<!-- Generator: Adobe Illustrator 16.0.3, SVG Export Plug-In . SVG Version: 6.00 Build 0)  -->
<!DOCTYPE svg PUBLIC "-//W3C//DTD SVG 1.1//EN" "http://www.w3.org/Graphics/SVG/1.1/DTD/svg11.dtd">
<svg version="1.1" xmlns="http://www.w3.org/2000/svg" xmlns:xlink="http://www.w3.org/1999/xlink" x="0px" y="0px" width="24px"
	 height="24px" viewBox="0 0 24 24" enable-background="new 0 0 24 24" xml:space="preserve">
<g id="Outline_Icons">
	<g>
		<path d="M2.5,2C1.121,2,0,3.121,0,4.5S1.121,7,2.5,7S5,5.879,5,4.5S3.879,2,2.5,2z M2.5,6C1.673,6,1,5.327,1,4.5S1.673,3,2.5,3
			S4,3.673,4,4.5S3.327,6,2.5,6z"/>
		<path d="M8.5,5h15C23.776,5,24,4.776,24,4.5S23.776,4,23.5,4h-15C8.224,4,8,4.224,8,4.5S8.224,5,8.5,5z"/>
		<path d="M2.5,10C1.121,10,0,11.121,0,12.5S1.121,15,2.5,15S5,13.879,5,12.5S3.879,10,2.5,10z M2.5,14C1.673,14,1,13.327,1,12.5
			S1.673,11,2.5,11S4,11.673,4,12.5S3.327,14,2.5,14z"/>
		<path d="M23.5,12h-15C8.224,12,8,12.224,8,12.5S8.224,13,8.5,13h15c0.276,0,0.5-0.224,0.5-0.5S23.776,12,23.5,12z"/>
		<path d="M2.5,18C1.121,18,0,19.121,0,20.5S1.121,23,2.5,23S5,21.879,5,20.5S3.879,18,2.5,18z M2.5,22C1.673,22,1,21.327,1,20.5
			S1.673,19,2.5,19S4,19.673,4,20.5S3.327,22,2.5,22z"/>
		<path d="M23.5,20h-15C8.224,20,8,20.224,8,20.5S8.224,21,8.5,21h15c0.276,0,0.5-0.224,0.5-0.5S23.776,20,23.5,20z"/>
	</g>
</g>
<g id="Invisible_Shape">
	<rect fill="none" width="24" height="24"/>
</g>
</svg>
