<?xml version="1.0" encoding="utf-8"?>
<!-- Generator: Adobe Illustrator 16.0.3, SVG Export Plug-In . SVG Version: 6.00 Build 0)  -->
<!DOCTYPE svg PUBLIC "-//W3C//DTD SVG 1.1//EN" "http://www.w3.org/Graphics/SVG/1.1/DTD/svg11.dtd">
<svg version="1.1" xmlns="http://www.w3.org/2000/svg" xmlns:xlink="http://www.w3.org/1999/xlink" x="0px" y="0px" width="24px"
	 height="24px" viewBox="0 0 24 24" enable-background="new 0 0 24 24" xml:space="preserve">
<g id="Outline_Icons">
	<g>
		<path d="M16.022,12.476c-0.711,0-1.459,0.119-2.251,0.244c-0.774,0.123-1.575,0.249-2.312,0.249c-0.732,0-1.525-0.121-2.293-0.238
			c-0.751-0.115-1.528-0.233-2.236-0.233c-2.368,0-3.471,1.431-3.471,4.503c0,2.206,1.794,4,4,4h8c2.206,0,4-1.794,4-4
			C19.459,13.914,18.367,12.476,16.022,12.476z M15.459,20h-8c-1.654,0-3-1.346-3-3c0-3.232,1.275-3.503,2.471-3.503
			c0.631,0,1.337,0.107,2.085,0.222c0.804,0.123,1.636,0.25,2.444,0.25c0.816,0,1.656-0.133,2.468-0.261
			c0.752-0.119,1.462-0.231,2.095-0.231c1.179,0,2.437,0.271,2.437,3.524C18.459,18.654,17.113,20,15.459,20z"/>
		<path d="M21.589,10.226c0.522-1.061,2.212-5.096-0.855-7.613C20.645,2.54,20.533,2.5,20.417,2.5c-1.914,0-4.445,2.449-5.22,3.248
			c-2.385-0.637-5.052-0.639-7.443-0.006C6.971,4.94,4.431,2.5,2.542,2.5c-0.116,0-0.228,0.04-0.317,0.113
			c-2.651,2.173-1.854,5.664-0.877,7.581c-1.039,1.677-1.481,3.629-1.314,5.805C0.289,19.31,3.014,23,6.515,23h9.888
			c3.502,0,6.227-3.69,6.481-7.001C23.05,13.835,22.615,11.896,21.589,10.226z M21.886,15.922C21.666,18.791,19.273,22,16.402,22
			H6.515c-2.87,0-5.263-3.209-5.484-6.078c-0.158-2.059,0.284-3.885,1.313-5.428c0.104-0.156,0.112-0.358,0.02-0.522
			C2.268,9.803,0.097,5.856,2.715,3.51c1.4,0.155,3.544,2.09,4.521,3.136c0.128,0.137,0.321,0.188,0.502,0.137
			c2.395-0.691,5.115-0.686,7.501,0.015c0.224,0.066,0.451-0.039,0.564-0.239c0.843-0.89,3.014-2.892,4.44-3.05
			c2.387,2.135,0.841,5.525,0.432,6.314c-0.013,0.01-0.025,0.021-0.037,0.034c-0.172,0.168-0.199,0.435-0.065,0.634
			C21.604,12.035,22.045,13.861,21.886,15.922z"/>
		<path d="M14.979,15c-0.841,0-1.5,0.878-1.5,2s0.659,2,1.5,2s1.5-0.878,1.5-2S15.821,15,14.979,15z M14.979,18
			c-0.204,0-0.5-0.39-0.5-1s0.296-1,0.5-1s0.5,0.39,0.5,1S15.184,18,14.979,18z"/>
		<path d="M7.979,15c-0.841,0-1.5,0.878-1.5,2s0.659,2,1.5,2s1.5-0.878,1.5-2S8.821,15,7.979,15z M7.979,18c-0.204,0-0.5-0.39-0.5-1
			s0.296-1,0.5-1s0.5,0.39,0.5,1S8.184,18,7.979,18z"/>
	</g>
</g>
<g id="Frames-24px">
	<rect fill="none" width="24" height="24"/>
</g>
</svg>
