<?xml version="1.0" encoding="utf-8"?>
<!-- Generator: Adobe Illustrator 16.0.3, SVG Export Plug-In . SVG Version: 6.00 Build 0)  -->
<!DOCTYPE svg PUBLIC "-//W3C//DTD SVG 1.1//EN" "http://www.w3.org/Graphics/SVG/1.1/DTD/svg11.dtd">
<svg version="1.1" xmlns="http://www.w3.org/2000/svg" xmlns:xlink="http://www.w3.org/1999/xlink" x="0px" y="0px" width="24px"
	 height="24px" viewBox="0 0 24 24" enable-background="new 0 0 24 24" xml:space="preserve">
<g id="Outline_Icons">
	<g>
		<path d="M23,3.474c-0.008-0.151-0.084-0.29-0.207-0.378c-0.122-0.089-0.278-0.116-0.424-0.077L17.006,4.48l-4.863-1.459
			c-0.094-0.028-0.193-0.028-0.287,0L6.994,4.48L1.631,3.018C1.486,2.978,1.329,3.006,1.208,3.095C1.085,3.184,1.009,3.323,1,3.474
			l-1,18.5c-0.013,0.239,0.146,0.454,0.378,0.512l6,1.5c0.083,0.021,0.17,0.02,0.252-0.003L12,22.519l5.369,1.464
			C17.412,23.995,17.456,24,17.5,24c0.041,0,0.082-0.005,0.121-0.015l6-1.5c0.232-0.059,0.391-0.273,0.378-0.512L23,3.474z
			 M17.505,22.984l-5.374-1.466C12.088,21.506,12.044,21.5,12,21.5s-0.088,0.006-0.131,0.018l-5.374,1.466l-5.473-1.368l0.944-17.47
			l4.903,1.337c0.089,0.024,0.185,0.023,0.275-0.003L12,4.022l4.856,1.457c0.089,0.027,0.185,0.027,0.275,0.003l4.903-1.337
			l0.944,17.47L17.505,22.984z"/>
		<path d="M19.354,8.147c-0.195-0.195-0.512-0.195-0.707,0L18,8.794l-0.646-0.647c-0.195-0.195-0.512-0.195-0.707,0
			s-0.195,0.512,0,0.707L17.293,9.5l-0.646,0.646c-0.195,0.195-0.195,0.512,0,0.707C16.744,10.952,16.872,11,17,11
			s0.256-0.049,0.354-0.146L18,10.208l0.646,0.646C18.744,10.952,18.872,11,19,11s0.256-0.049,0.354-0.146
			c0.195-0.195,0.195-0.512,0-0.707L18.707,9.5l0.646-0.646C19.549,8.659,19.549,8.342,19.354,8.147z"/>
		<path d="M4.646,16.647l-0.5,0.5c-0.195,0.195-0.195,0.512,0,0.707C4.244,17.952,4.372,18,4.5,18s0.256-0.049,0.354-0.146l0.5-0.5
			c0.195-0.195,0.195-0.512,0-0.707S4.842,16.452,4.646,16.647z"/>
		<path d="M7.646,13.647l-0.5,0.5c-0.195,0.195-0.195,0.512,0,0.707C7.244,14.952,7.372,15,7.5,15s0.256-0.049,0.354-0.146l0.5-0.5
			c0.195-0.195,0.195-0.512,0-0.707S7.842,13.452,7.646,13.647z"/>
		<path d="M18.5,11.5c-0.276,0-0.5,0.224-0.5,0.5v1c0,0.276,0.224,0.5,0.5,0.5S19,13.277,19,13v-1C19,11.724,18.776,11.5,18.5,11.5z
			"/>
		<path d="M14.354,14.147c-0.195-0.195-0.512-0.195-0.707,0s-0.195,0.512,0,0.707l0.5,0.5c0.098,0.098,0.226,0.146,0.354,0.146
			s0.256-0.049,0.354-0.146c0.195-0.195,0.195-0.512,0-0.707L14.354,14.147z"/>
		<path d="M12,12h-1c-0.276,0-0.5,0.224-0.5,0.5S10.724,13,11,13h1c0.276,0,0.5-0.224,0.5-0.5S12.276,12,12,12z"/>
		<path d="M17.646,15.147l-0.5,0.5c-0.195,0.195-0.195,0.512,0,0.707c0.098,0.098,0.226,0.146,0.354,0.146s0.256-0.049,0.354-0.146
			l0.5-0.5c0.195-0.195,0.195-0.512,0-0.707S17.842,14.952,17.646,15.147z"/>
	</g>
</g>
<g id="invisible_shape">
	<rect fill="none" width="24" height="24"/>
</g>
</svg>
