<?xml version="1.0" encoding="utf-8"?>
<!-- Generator: Adobe Illustrator 16.0.3, SVG Export Plug-In . SVG Version: 6.00 Build 0)  -->
<!DOCTYPE svg PUBLIC "-//W3C//DTD SVG 1.1//EN" "http://www.w3.org/Graphics/SVG/1.1/DTD/svg11.dtd">
<svg version="1.1" xmlns="http://www.w3.org/2000/svg" xmlns:xlink="http://www.w3.org/1999/xlink" x="0px" y="0px" width="24px"
	 height="24px" viewBox="0 0 24 24" enable-background="new 0 0 24 24" xml:space="preserve">
<g id="Outline_Icons_1_">
	<g id="Outline_Icons">
		<path d="M22.176,17.516l-2.453-2.453c-0.531-0.531-1.236-0.824-1.987-0.824c0,0-0.001,0-0.002,0c-0.751,0-1.458,0.292-1.99,0.824
			l-0.496,0.496c-2.434-2.031-4.772-4.37-6.806-6.807l0.497-0.496c1.096-1.098,1.096-2.882,0-3.978L6.485,1.824
			c-1.062-1.062-2.916-1.062-3.979,0L1.162,3.17C-0.165,4.497-0.376,6.598,0.66,8.164c3.952,5.976,9.2,11.224,15.175,15.176
			c0.667,0.44,1.429,0.656,2.188,0.656c1.026,0,2.044-0.395,2.807-1.157l1.346-1.346C22.707,20.962,23,20.256,23,19.504
			C23,18.753,22.707,18.046,22.176,17.516z M21.469,20.786l-1.346,1.346c-0.992,0.992-2.563,1.15-3.736,0.374
			C10.523,18.627,5.373,13.478,1.494,7.613C0.719,6.44,0.877,4.869,1.869,3.877l1.345-1.346c0.354-0.354,0.818-0.53,1.282-0.53
			s0.929,0.177,1.282,0.53l2.454,2.454c0.706,0.706,0.706,1.856,0,2.563L7.414,8.366c-0.182,0.182-0.196,0.472-0.033,0.67
			c2.235,2.729,4.857,5.352,7.583,7.584c0.199,0.163,0.488,0.147,0.67-0.033l0.817-0.817c0.343-0.343,0.798-0.531,1.283-0.531h0.001
			c0.483,0,0.938,0.188,1.28,0.531l2.453,2.453C21.811,18.564,22,19.02,22,19.504S21.811,20.443,21.469,20.786z"/>
	</g>
	<g id="New_icons_1_">
	</g>
</g>
<g id="Invisible_Shape">
	<rect fill="none" width="24" height="24"/>
</g>
</svg>
