<?xml version="1.0" encoding="utf-8"?>
<!-- Generator: Adobe Illustrator 16.0.3, SVG Export Plug-In . SVG Version: 6.00 Build 0)  -->
<!DOCTYPE svg PUBLIC "-//W3C//DTD SVG 1.1//EN" "http://www.w3.org/Graphics/SVG/1.1/DTD/svg11.dtd">
<svg version="1.1" xmlns="http://www.w3.org/2000/svg" xmlns:xlink="http://www.w3.org/1999/xlink" x="0px" y="0px" width="24px"
	 height="24px" viewBox="0 0 24 24" enable-background="new 0 0 24 24" xml:space="preserve">
<g id="Outline_Icons_1_">
	<g id="Outline_Icons">
		<g>
			<path d="M7.239,10.128c-0.211-0.176-0.526-0.148-0.704,0.063L4.01,13.216c-0.249-1.798,0.118-3.628,1.082-5.242
				C6.27,6,8.194,4.573,10.372,4.059c2.871-0.68,5.875,0.272,7.835,2.485c0.184,0.208,0.499,0.227,0.705,0.043
				c0.207-0.183,0.227-0.499,0.043-0.705c-2.203-2.491-5.579-3.566-8.813-2.796c-2.438,0.575-4.593,2.17-5.908,4.375
				C3.338,8.96,2.907,10.625,2.939,12.3L1.342,9.921c-0.155-0.232-0.468-0.29-0.693-0.137c-0.229,0.154-0.291,0.465-0.137,0.693
				l2.787,4.15c0.186,0.275,0.583,0.3,0.799,0.042l3.205-3.838C7.479,10.62,7.451,10.305,7.239,10.128z"/>
			<path d="M21.129,10.071c-0.224-0.333-0.659-0.278-0.869,0.042l-3.136,3.754c-0.177,0.212-0.148,0.527,0.063,0.704
				c0.213,0.177,0.527,0.149,0.704-0.063l2.405-2.879c0.086,3.618-2.555,7.129-6.244,8c-2.694,0.641-5.487-0.145-7.465-2.094
				c-0.195-0.192-0.512-0.192-0.707,0.006c-0.193,0.196-0.191,0.513,0.006,0.707c2.231,2.2,5.375,3.07,8.396,2.354
				c4.039-0.953,6.893-4.551,7.021-8.476l1.78,2.652c0.156,0.233,0.47,0.288,0.693,0.137c0.229-0.154,0.291-0.465,0.137-0.693
				L21.129,10.071z"/>
		</g>
	</g>
	<g id="New_icons_1_">
	</g>
</g>
<g id="Invisible_Shape">
	<rect fill="none" width="24" height="24"/>
</g>
</svg>
