<?xml version="1.0" encoding="utf-8"?>
<!-- Generator: Adobe Illustrator 19.2.1, SVG Export Plug-In . SVG Version: 6.00 Build 0)  -->
<svg version="1.1" xmlns="http://www.w3.org/2000/svg" xmlns:xlink="http://www.w3.org/1999/xlink" x="0px" y="0px" width="24px"
	 height="24px" viewBox="0 0 24 24" enable-background="new 0 0 24 24" xml:space="preserve">
<g id="Outline_Icons">
	<g>
		<path d="M13,11.5V14h-3v-2.5c0-0.276-0.224-0.5-0.5-0.5h-6C3.224,11,3,11.224,3,11.5v7C3,18.776,3.224,19,3.5,19h16
			c0.276,0,0.5-0.224,0.5-0.5v-7c0-0.276-0.224-0.5-0.5-0.5h-6C13.224,11,13,11.224,13,11.5z M14,14.5V12h5v6H4v-6h5v2.5
			C9,14.776,9.224,15,9.5,15h4C13.776,15,14,14.776,14,14.5z"/>
		<path d="M11.5,13c0.276,0,0.5-0.224,0.5-0.5v-1c0-0.276-0.224-0.5-0.5-0.5S11,11.224,11,11.5v1C11,12.776,11.224,13,11.5,13z"/>
		<path d="M17.5,3h-12C3.019,3,1,5.019,1,7.5v2v11C1,20.776,1.224,21,1.5,21h20c0.276,0,0.5-0.224,0.5-0.5v-11v-2
			C22,5.019,19.981,3,17.5,3z M17.5,4C19.43,4,21,5.57,21,7.5V9h-4V7.5c0-0.977-0.289-2.501-1.189-3.5H17.5z M7,9V7.501
			C7,7.358,7.039,4,9.5,4h4C15.961,4,16,7.358,16,7.5V9H7z M2,7.5C2,5.57,3.57,4,5.5,4h1.689C6.289,4.999,6,6.523,6,7.5V9H2V7.5z
			 M21,20H2V10h19V20z"/>
	</g>
</g>
<g id="invisible_shape">
	<rect fill="none" width="24" height="24"/>
</g>
</svg>
