<?xml version="1.0" encoding="utf-8"?>
<!-- Generator: Adobe Illustrator 16.0.3, SVG Export Plug-In . SVG Version: 6.00 Build 0)  -->
<!DOCTYPE svg PUBLIC "-//W3C//DTD SVG 1.1//EN" "http://www.w3.org/Graphics/SVG/1.1/DTD/svg11.dtd">
<svg version="1.1" xmlns="http://www.w3.org/2000/svg" xmlns:xlink="http://www.w3.org/1999/xlink" x="0px" y="0px" width="24px"
	 height="24px" viewBox="0 0 24 24" enable-background="new 0 0 24 24" xml:space="preserve">
<g id="Outline_Icons_1_">
	<g id="Outline_Icons">
		<g>
			<path d="M5.5,15H8v5.5C8,20.776,8.224,21,8.5,21h7c0.276,0,0.5-0.224,0.5-0.5V15h2.469c0.008,0.001,0.015,0,0.02,0
				c0.505,0,0.688-0.666,0.261-0.927l-6.427-6.426c-0.192-0.192-0.51-0.199-0.708,0.001l-6.469,6.5C4.833,14.461,5.057,15,5.5,15z
				 M11.97,8.708L17.262,14H15.5c-0.276,0-0.5,0.224-0.5,0.5V20H9v-5.5C9,14.224,8.776,14,8.5,14H6.703L11.97,8.708z"/>
			<path d="M22.964,5.314l-2-5C20.889,0.125,20.704,0,20.5,0h-17C3.296,0,3.111,0.125,3.036,0.314l-2,5C1.012,5.374,1,5.437,1,5.5
				v18C1,23.776,1.224,24,1.5,24h21c0.276,0,0.5-0.224,0.5-0.5v-18C23,5.437,22.988,5.374,22.964,5.314z M21.762,5H12V1h8.161
				L21.762,5z M3.839,1H11v4H2.238L3.839,1z M2,23V6h20v17H2z"/>
		</g>
	</g>
	<g id="New_icons_1_">
	</g>
</g>
<g id="Invisible_Shape">
	<rect fill="none" width="24" height="24"/>
</g>
</svg>
