<?xml version="1.0" encoding="utf-8"?>
<!-- Generator: Adobe Illustrator 16.0.0, SVG Export Plug-In . SVG Version: 6.00 Build 0)  -->
<!DOCTYPE svg PUBLIC "-//W3C//DTD SVG 1.1//EN" "http://www.w3.org/Graphics/SVG/1.1/DTD/svg11.dtd">
<svg version="1.1" id="Layer_1" xmlns="http://www.w3.org/2000/svg" xmlns:xlink="http://www.w3.org/1999/xlink" x="0px" y="0px"
	 width="21.714px" height="24px" viewBox="0 0 21.714 24" enable-background="new 0 0 21.714 24" xml:space="preserve">
<g>
	<path d="M14.5,24h-10C4.224,24,4,23.776,4,23.5v-5.479c-2.655-1.683-4-4.357-4-7.958C0,4.42,4.393,0,10,0
		c4.701,0,9.563,3.145,9.563,8.406c0.011,0.206,0.421,0.925,0.722,1.45c0.704,1.234,1.503,2.632,1.423,3.749l-0.004,0.138
		c-0.002,0.202-0.005,0.479-0.19,0.743c-0.214,0.308-0.574,0.502-0.963,0.52c-0.331,0.014-0.716,0.012-1.016,0.007
		c-0.008,1.188-0.127,3.693-0.963,4.528c-0.785,0.786-1.836,0.965-3.572,0.981V23.5C15,23.776,14.776,24,14.5,24z M5,23h9v-2.977
		c0-0.133,0.053-0.261,0.147-0.354c0.095-0.093,0.24-0.164,0.355-0.146l0.192,0.001c1.878,0,2.648-0.168,3.17-0.69
		c0.515-0.515,0.699-2.838,0.666-4.322c-0.003-0.139,0.051-0.271,0.149-0.368c0.098-0.096,0.239-0.137,0.369-0.144
		c0.006,0,0.832,0.034,1.459,0.006c0.073-0.003,0.149-0.041,0.186-0.093c0.008-0.022,0.009-0.117,0.01-0.18
		c0-0.066,0.001-0.134,0.006-0.201c0.059-0.812-0.723-2.18-1.294-3.18c-0.544-0.954-0.853-1.515-0.853-1.946
		C18.563,3.771,14.209,1,10,1c-5.047,0-9,3.981-9,9.062c0,3.331,1.263,5.77,3.755,7.248C4.907,17.4,5,17.563,5,17.74V23z"/>
	<path d="M10,15.053c-0.103,0-0.205-0.031-0.292-0.095C9.175,14.574,4.5,11.126,4.5,8.285c0-2.023,1.513-3.233,2.976-3.233
		c0.861,0,1.872,0.432,2.524,1.561c0.653-1.129,1.664-1.561,2.524-1.561c1.463,0,2.976,1.209,2.976,3.233
		c0,2.841-4.675,6.289-5.208,6.673C10.205,15.021,10.103,15.053,10,15.053z M7.476,6.052C6.504,6.052,5.5,6.888,5.5,8.285
		c0,1.844,3.015,4.517,4.5,5.646c1.485-1.129,4.5-3.802,4.5-5.646c0-1.397-1.005-2.233-1.976-2.233
		c-0.966,0-1.728,0.764-2.039,2.044c-0.108,0.448-0.863,0.448-0.972,0C9.203,6.816,8.441,6.052,7.476,6.052z"/>
</g>
</svg>
