<?xml version="1.0" encoding="utf-8"?>
<!-- Generator: Adobe Illustrator 16.0.3, SVG Export Plug-In . SVG Version: 6.00 Build 0)  -->
<!DOCTYPE svg PUBLIC "-//W3C//DTD SVG 1.1//EN" "http://www.w3.org/Graphics/SVG/1.1/DTD/svg11.dtd">
<svg version="1.1" xmlns="http://www.w3.org/2000/svg" xmlns:xlink="http://www.w3.org/1999/xlink" x="0px" y="0px" width="24px"
	 height="24px" viewBox="0 0 24 24" enable-background="new 0 0 24 24" xml:space="preserve">
<g id="Outline_Icons">
	<g>
		<path d="M21.5,2h-19C1.121,2,0,3.121,0,4.5v14C0,19.879,1.121,21,2.5,21h19c1.379,0,2.5-1.121,2.5-2.5v-14
			C24,3.121,22.879,2,21.5,2z M2.5,3h19C22.327,3,23,3.673,23,4.5V7H1V4.5C1,3.673,1.673,3,2.5,3z M21.5,20h-19
			C1.673,20,1,19.327,1,18.5V8h22v10.5C23,19.327,22.327,20,21.5,20z"/>
		<circle cx="4" cy="5" r="1"/>
		<circle cx="7" cy="5" r="1"/>
		<circle cx="10" cy="5" r="1"/>
		<path d="M5.854,11.146c-0.195-0.195-0.512-0.195-0.707,0s-0.195,0.512,0,0.707L7.293,14l-2.146,2.146
			c-0.195,0.195-0.195,0.512,0,0.707C5.244,16.951,5.372,17,5.5,17s0.256-0.049,0.354-0.146l2.5-2.5
			c0.195-0.195,0.195-0.512,0-0.707L5.854,11.146z"/>
		<path d="M15.5,14h-4c-0.276,0-0.5,0.224-0.5,0.5s0.224,0.5,0.5,0.5h4c0.276,0,0.5-0.224,0.5-0.5S15.776,14,15.5,14z"/>
	</g>
</g>
<g id="Invisible_Shape">
	<rect fill="none" width="24" height="24"/>
</g>
</svg>
