<?xml version="1.0" encoding="utf-8"?>
<!-- Generator: Adobe Illustrator 16.0.0, SVG Export Plug-In . SVG Version: 6.00 Build 0)  -->
<!DOCTYPE svg PUBLIC "-//W3C//DTD SVG 1.1//EN" "http://www.w3.org/Graphics/SVG/1.1/DTD/svg11.dtd">
<svg version="1.1" id="Layer_1" xmlns="http://www.w3.org/2000/svg" xmlns:xlink="http://www.w3.org/1999/xlink" x="0px" y="0px"
	 width="373.458px" height="205px" viewBox="0 0 373.458 205" enable-background="new 0 0 373.458 205" xml:space="preserve">
<path d="M373.458,205h-1c0-4-0.246-8.236-0.732-12.154l0.992,0.002C373.209,196.806,373.458,200,373.458,205z M369.521,180.876
	c-0.977-3.848-2.208-7.669-3.659-11.358l0.93-0.366c1.467,3.729,2.711,7.591,3.698,11.479L369.521,180.876z M360.804,158.709
	c-1.9-3.476-4.043-6.87-6.367-10.089l0.811-0.586c2.349,3.253,4.514,6.683,6.434,10.195L360.804,158.709z M346.865,139.403
	c-2.7-2.899-5.612-5.66-8.655-8.205l0.643-0.767c3.073,2.571,6.016,5.36,8.745,8.29L346.865,139.403z M328.604,124.133
	c-3.335-2.146-6.837-4.102-10.407-5.811l0.432-0.902c3.608,1.728,7.146,3.704,10.517,5.873L328.604,124.133z M307.139,113.857
	c-3.761-1.25-7.641-2.272-11.531-3.041l0.193-0.981c3.933,0.777,7.853,1.811,11.652,3.073L307.139,113.857z M283.785,109.239
	c-2.256-0.159-4.553-0.239-6.827-0.239h-5v-1h5c2.298,0,4.618,0.082,6.897,0.242L283.785,109.239z M259.958,109h-12v-1h12V109z
	 M235.958,109h-12v-1h12V109z M211.958,109h-12v-1h12V109z M187.958,109h-12v-1h12V109z M163.958,109h-12v-1h12V109z M139.958,109
	h-12v-1h12V109z M115.958,109h-6.667c-1.828,0-3.672-0.045-5.484-0.135l0.05-0.999c1.794,0.089,3.623,0.134,5.434,0.134h6.667V109z
	 M91.829,107.614c-3.958-0.635-7.918-1.497-11.771-2.562l0.267-0.964c3.817,1.056,7.741,1.91,11.662,2.539L91.829,107.614z
	 M68.64,101.201c-3.715-1.487-7.39-3.2-10.922-5.091l0.472-0.882c3.5,1.874,7.141,3.571,10.822,5.044L68.64,101.201z M47.425,89.845
	c-3.299-2.266-6.509-4.741-9.541-7.356l0.653-0.757c3.004,2.591,6.185,5.044,9.454,7.289L47.425,89.845z M29.208,74.133
	c-2.728-2.932-5.321-6.046-7.708-9.255l0.803-0.597c2.365,3.18,4.935,6.266,7.638,9.171L29.208,74.133z M14.855,54.833
	c-2.022-3.458-3.871-7.062-5.495-10.715l0.914-0.406c1.609,3.619,3.44,7.191,5.444,10.616L14.855,54.833z M5.085,32.856
	c-1.209-3.812-2.218-7.737-2.997-11.667l0.98-0.194c0.772,3.894,1.772,7.783,2.97,11.559L5.085,32.856z M0.401,9.346
	C0.134,6.229,0,3,0,0h1c0,3,0.133,6.213,0.397,9.302L0.401,9.346z"/>
</svg>
